<svg width="73" height="73" viewBox="0 0 73 73" fill="none" xmlns="http://www.w3.org/2000/svg">
<g filter="url(#filter0_d)">
<path d="M36.3971 59.397C50.7565 59.397 62.3971 47.7564 62.3971 33.397C62.3971 19.0376 50.7565 7.39697 36.3971 7.39697C22.0377 7.39697 10.3971 19.0376 10.3971 33.397C10.3971 47.7564 22.0377 59.397 36.3971 59.397Z" fill="url(#paint0_linear)"/>
</g>
<rect x="10.3971" y="7.39697" width="52" height="52" rx="20" fill="url(#paint1_linear)"/>
<path d="M49.1802 47.1537L46.9565 27.1391C46.8806 26.4557 46.2552 25.8967 45.5686 25.8967H28.0684C27.3808 25.8967 26.7565 26.4557 26.6805 27.1391L24.4567 47.1537C24.3807 47.8376 24.8815 48.396 25.5682 48.396H48.0678C48.7554 48.396 49.2562 47.8376 49.1802 47.1537Z" fill="url(#paint2_linear)"/>
<path d="M49.1042 46.4697C48.9404 46.8707 48.5504 47.1454 48.0678 47.1454H25.5682C25.0866 47.1454 24.6966 46.8707 24.5318 46.4697L24.4567 47.1536C24.3807 47.8375 24.8815 48.3959 25.5682 48.3959H48.0678C48.7554 48.3959 49.2562 47.8375 49.1802 47.1536L49.1042 46.4697Z" fill="#D770AD"/>
<path d="M41.8187 23.397C41.8187 20.6353 39.5794 18.397 36.8177 18.397C34.0566 18.397 31.8182 20.6353 31.8182 23.397V29.0021H31.8192C31.8192 29.0085 31.8182 29.0149 31.8182 29.0217C31.8182 29.3669 32.0975 29.6466 32.4435 29.6466C32.7877 29.6466 33.0679 29.3669 33.0679 29.0217C33.0679 29.0149 33.0679 29.0085 33.0669 29.0021H33.0679V23.397C33.0679 21.3288 34.7506 19.6471 36.8177 19.6471C38.8863 19.6471 40.5681 21.3288 40.5681 23.397V29.0021H40.5699C40.569 29.0085 40.5681 29.0149 40.5681 29.0217C40.5681 29.3669 40.8482 29.6466 41.1934 29.6466C41.5385 29.6466 41.8187 29.3669 41.8187 29.0217C41.8187 29.0149 41.8177 29.0085 41.8169 29.0021H41.8187V23.397Z" fill="#656D78"/>
<path d="M39.1619 33.0837C38.2445 33.0837 37.4128 33.4614 36.8177 34.0693C36.2226 33.4614 35.3923 33.0837 34.474 33.0837C32.6622 33.0837 31.1929 34.5536 31.1929 36.3644C31.1929 40.1143 36.8177 43.3954 36.8177 43.3954C36.8177 43.3954 42.443 40.1143 42.443 36.3644C42.443 34.5536 40.9745 33.0837 39.1619 33.0837Z" fill="#FF9090"/>
<g opacity="0.1">
<path d="M39.1619 33.0837C38.9486 33.0837 38.7398 33.1052 38.5375 33.1442C40.0499 33.4362 41.1933 34.7668 41.1933 36.3644C41.1933 39.3379 37.6581 42.0157 36.1934 42.9981C36.576 43.2544 36.8177 43.3954 36.8177 43.3954C36.8177 43.3954 42.443 40.1143 42.443 36.3644C42.443 34.5536 40.9746 33.0837 39.1619 33.0837Z" fill="black"/>
</g>
<defs>
<filter id="filter0_d" x="0.397095" y="0.396973" width="72" height="72" filterUnits="userSpaceOnUse" color-interpolation-filters="sRGB">
<feFlood flood-opacity="0" result="BackgroundImageFix"/>
<feColorMatrix in="SourceAlpha" type="matrix" values="0 0 0 0 0 0 0 0 0 0 0 0 0 0 0 0 0 0 127 0"/>
<feOffset dy="3"/>
<feGaussianBlur stdDeviation="5"/>
<feColorMatrix type="matrix" values="0 0 0 0 0.839216 0 0 0 0 0.341176 0 0 0 0 0.929412 0 0 0 0.3 0"/>
<feBlend mode="normal" in2="BackgroundImageFix" result="effect1_dropShadow"/>
<feBlend mode="normal" in="SourceGraphic" in2="effect1_dropShadow" result="shape"/>
</filter>
<linearGradient id="paint0_linear" x1="10.3971" y1="7.39697" x2="10.3971" y2="59.397" gradientUnits="userSpaceOnUse">
<stop stop-color="#F1ABFF"/>
<stop offset="1" stop-color="#D556EC"/>
</linearGradient>
<linearGradient id="paint1_linear" x1="10.3971" y1="7.39697" x2="10.3971" y2="59.397" gradientUnits="userSpaceOnUse">
<stop stop-color="#F1ABFF"/>
<stop offset="1" stop-color="#D556EC"/>
</linearGradient>
<linearGradient id="paint2_linear" x1="23.826" y1="24.7634" x2="23.826" y2="48.396" gradientUnits="userSpaceOnUse">
<stop stop-color="white"/>
<stop offset="1" stop-color="white" stop-opacity="0.802448"/>
</linearGradient>
</defs>
</svg>
