<svg width="73" height="73" viewBox="0 0 73 73" fill="none" xmlns="http://www.w3.org/2000/svg">
<g filter="url(#filter0_d)">
<path d="M36.3971 59.397C50.7565 59.397 62.3971 47.7564 62.3971 33.397C62.3971 19.0376 50.7565 7.39697 36.3971 7.39697C22.0377 7.39697 10.3971 19.0376 10.3971 33.397C10.3971 47.7564 22.0377 59.397 36.3971 59.397Z" fill="url(#paint0_linear)"/>
</g>
<rect x="10.3971" y="7.39697" width="52" height="52" rx="20" fill="url(#paint1_linear)"/>
<path d="M45.2255 25.8005L43.4866 25.0356V35.6103C43.4866 36.3113 43.2754 36.9547 42.9152 37.4877C42.3149 38.3761 41.3114 38.9572 40.1641 38.9717H35.8038C34.4785 38.9717 33.4028 37.8959 33.4028 36.5707L34.8434 33.443C34.8434 32.9628 34.8434 33.2097 34.8434 33.2097H25.7195V34.1701L22.8382 36.6382L22.358 37.0513L23.088 37.7813L23.1557 37.8633C24.14 37.061 25.4655 36.5716 26.9205 36.5716C29.9745 36.5716 32.4428 38.7229 32.4428 41.3737H43.0088C43.537 41.3737 44.0222 41.2344 44.4494 40.9894C44.4302 39.9281 47.1137 37.5473 47.661 37.533L45.2255 25.8005Z" fill="white"/>
<path d="M25.719 34.1699L22.8378 36.638V35.1303L25.719 34.1699Z" fill="#ED5565"/>
<path d="M40.4715 24.5849C40.7259 24.5082 40.9948 24.6571 41.0668 24.9115C41.1437 25.1661 40.9995 25.4302 40.7451 25.5071C40.4907 25.5837 40.2218 25.4349 40.1449 25.1804C40.0729 24.926 40.2168 24.6623 40.4715 24.5849Z" fill="#656D78"/>
<path d="M41.0668 24.9115C40.9948 24.6575 40.7258 24.5082 40.4714 24.5848L42.5798 23.9656C42.5463 24.076 42.5271 24.2008 42.5271 24.3257C42.5271 24.5466 42.5848 24.7529 42.6903 24.9307L40.7455 25.507C40.9995 25.4301 41.1437 25.1661 41.0668 24.9115Z" fill="#545C66"/>
<path d="M35.5632 32.7206V29.8426C35.5632 29.7102 35.4556 29.6025 35.3231 29.6025H34.8433C34.7109 29.6025 34.6032 29.7102 34.6032 29.8426C34.6032 29.9747 34.4952 30.0827 34.3631 30.0827H25.719C25.3218 30.0827 24.9987 30.4059 24.9987 30.8031V32.7234C24.9987 33.1206 25.3218 33.4437 25.719 33.4437C25.7199 33.4437 25.7204 33.4432 25.7213 33.4432H34.8433C35.2405 33.4432 35.5637 33.1201 35.5637 32.7229C35.5637 32.722 35.5632 32.7215 35.5632 32.7206Z" fill="#656D78"/>
<path d="M30.7621 41.3731C30.7621 43.4951 29.0417 45.2157 26.9195 45.2157C24.7973 45.2157 23.0769 43.4951 23.0769 41.3731C23.0769 39.2509 24.7973 37.5303 26.9195 37.5303C29.0417 37.5303 30.7621 39.2509 30.7621 41.3731Z" fill="#656D78"/>
<path d="M28.8403 41.373C28.8403 42.4337 27.9802 43.2938 26.9195 43.2938C25.8587 43.2938 24.9987 42.4337 24.9987 41.373C24.9987 40.312 25.8587 39.4521 26.9195 39.4521C27.9802 39.4521 28.8403 40.312 28.8403 41.373Z" fill="#E6E9ED"/>
<path d="M51.1703 41.3726C51.1703 43.4946 49.4499 45.2152 47.3277 45.2152C45.2055 45.2152 43.4851 43.4946 43.4851 41.3726C43.4851 39.2504 45.2055 37.5298 47.3277 37.5298C49.4499 37.5298 51.1703 39.2504 51.1703 41.3726Z" fill="#656D78"/>
<path d="M49.2486 41.3727C49.2486 42.4335 48.3886 43.2936 47.3278 43.2936C46.267 43.2936 45.407 42.4335 45.407 41.3727C45.407 40.3117 46.267 39.4519 47.3278 39.4519C48.3886 39.4519 49.2486 40.3117 49.2486 41.3727Z" fill="#E6E9ED"/>
<path d="M46.5218 22.476C46.4672 22.4307 46.3957 22.412 46.3256 22.4239L45.1841 22.6305C43.3416 22.9517 43.3079 22.9632 43.2886 22.97C42.9597 23.0758 42.6846 23.2908 42.5088 23.579C42.4992 23.5895 42.491 23.6015 42.4835 23.6134C42.3643 23.8137 42.2975 24.0467 42.2893 24.2901C42.2874 24.3016 42.2865 24.314 42.2865 24.3262V24.3337V24.3415C42.2865 24.3534 42.2874 24.3656 42.2893 24.3771C42.298 24.6205 42.3643 24.8538 42.4835 25.054C42.4905 25.0658 42.4987 25.0773 42.5078 25.0878C42.6837 25.3764 42.9592 25.5919 43.2854 25.6967C43.3079 25.7042 43.3416 25.716 45.1827 26.0372L46.3256 26.2435C46.3394 26.2461 46.3544 26.2475 46.3682 26.2475C46.4241 26.2475 46.4782 26.2278 46.5218 26.1917C46.5767 26.1462 46.6084 26.0789 46.6084 26.0074V22.6603C46.6084 22.5888 46.5772 22.5215 46.5218 22.476Z" fill="#E6E9ED"/>
<path d="M24.9987 31.0432V31.5234H35.5632V31.0432H24.9987Z" fill="#545C66"/>
<path d="M26.9195 35.8508C23.8692 35.8508 21.3971 38.3229 21.3971 41.3732H32.4418C32.4418 38.3234 29.9698 35.8508 26.9195 35.8508Z" fill="#ED5565"/>
<path d="M45.6901 37.4224C43.4851 38.3352 42.4377 40.8645 43.351 43.0691L51.337 39.7613C50.423 37.5563 47.8949 36.5089 45.6901 37.4224Z" fill="#ED5565"/>
<defs>
<filter id="filter0_d" x="0.397095" y="0.396973" width="72" height="72" filterUnits="userSpaceOnUse" color-interpolation-filters="sRGB">
<feFlood flood-opacity="0" result="BackgroundImageFix"/>
<feColorMatrix in="SourceAlpha" type="matrix" values="0 0 0 0 0 0 0 0 0 0 0 0 0 0 0 0 0 0 127 0"/>
<feOffset dy="3"/>
<feGaussianBlur stdDeviation="5"/>
<feColorMatrix type="matrix" values="0 0 0 0 0.972549 0 0 0 0 0.635294 0 0 0 0 0.00392157 0 0 0 0.3 0"/>
<feBlend mode="normal" in2="BackgroundImageFix" result="effect1_dropShadow"/>
<feBlend mode="normal" in="SourceGraphic" in2="effect1_dropShadow" result="shape"/>
</filter>
<linearGradient id="paint0_linear" x1="10.3971" y1="7.39697" x2="10.3971" y2="59.397" gradientUnits="userSpaceOnUse">
<stop stop-color="#FBD275"/>
<stop offset="1" stop-color="#F8A200"/>
</linearGradient>
<linearGradient id="paint1_linear" x1="10.3971" y1="7.39697" x2="10.3971" y2="59.397" gradientUnits="userSpaceOnUse">
<stop stop-color="#FBD275"/>
<stop offset="1" stop-color="#F8A200"/>
</linearGradient>
</defs>
</svg>
