<svg width="20" height="17" viewBox="0 0 20 17" fill="none" xmlns="http://www.w3.org/2000/svg">
<path fill-rule="evenodd" clip-rule="evenodd" d="M15.2198 3.23655L17.3187 3.24729C18.7912 3.24729 20 4.43011 20 5.87094V14.3548C20 15.7957 18.7912 17 17.3187 17H2.68131C1.20881 17 0 15.7957 0 14.3548V5.87094C0 4.43011 1.20881 3.24729 2.68135 3.24729L4.62641 3.23655L6.70333 0.290323C6.82418 0.118292 7.02199 0 7.24178 0H12.6593C12.8791 0 13.0879 0.118255 13.2088 0.301063L15.2198 3.23655ZM17.3187 15.7097C18.0659 15.7097 18.6813 15.0861 18.6814 14.3549H18.6704V5.87098C18.6704 5.13982 18.055 4.53766 17.3078 4.53766L14.8462 4.51614C14.6374 4.51614 14.4286 4.39785 14.3077 4.22582L12.3077 1.30107H7.59344L5.51652 4.2473C5.39566 4.41933 5.19786 4.53762 4.97807 4.53762H2.68135C1.93412 4.53762 1.31872 5.13975 1.31872 5.87094V14.3548C1.31872 15.086 1.93408 15.7097 2.68135 15.7097H17.3187Z" fill="#727C8E"/>
<path fill-rule="evenodd" clip-rule="evenodd" d="M6 9.50002C6 7.02237 8.01178 5 10.5 5C12.9776 5 15 7.02233 15 9.49998C15 11.9776 12.9776 14 10.5 14C8.02236 14 6 11.9777 6 9.50002ZM7.27058 9.49998C7.27058 11.2788 8.72118 12.7294 10.5 12.7294C12.2788 12.7294 13.7294 11.2788 13.7294 9.49998C13.7294 7.72116 12.2788 6.27055 10.5 6.27055C8.72118 6.27055 7.27058 7.72116 7.27058 9.49998Z" fill="#727C8E"/>
<path d="M16.5 7C16.7761 7 17 6.77614 17 6.5C17 6.22386 16.7761 6 16.5 6C16.2239 6 16 6.22386 16 6.5C16 6.77614 16.2239 7 16.5 7Z" fill="#727C8E"/>
</svg>
