<svg width="30" height="26" viewBox="0 0 30 26" fill="none" xmlns="http://www.w3.org/2000/svg">
<path fill-rule="evenodd" clip-rule="evenodd" d="M10.0226 16.8335H10.0213C9.56993 16.8346 9.20314 17.1892 9.20314 17.625C9.20314 18.0614 9.57121 18.4167 10.0235 18.4167H24.8985C25.3516 18.4167 25.7188 18.7711 25.7188 19.2083C25.7188 19.6456 25.3516 20 24.8985 20H10.0235C8.66652 20 7.56251 18.9345 7.56251 17.625C7.56251 16.6505 8.17411 15.8116 9.04591 15.4459L6.08424 2.58333H1.82031C1.36722 2.58333 1 2.22894 1 1.79167C1 1.35439 1.36722 1 1.82031 1H6.7422C7.12672 1 7.45954 1.2577 7.54307 1.61993L8.12947 4.16667H28.1797C28.4371 4.16667 28.6796 4.28335 28.8347 4.48168C28.9896 4.68001 29.0391 4.93689 28.9684 5.17584L25.6872 16.2592C25.5866 16.5989 25.2646 16.8333 24.8985 16.8333H10.0258L10.0226 16.8335ZM24.2796 15.25L27.0922 5.75H8.49391L10.6814 15.25H24.2796Z" fill="#F77866"/>
<path d="M10.0213 16.8335V16.5835L10.0207 16.5835L10.0213 16.8335ZM10.0226 16.8335V17.0835H10.0306L10.0386 17.083L10.0226 16.8335ZM9.04591 15.4459L9.14262 15.6764L9.33678 15.5949L9.28954 15.3898L9.04591 15.4459ZM6.08424 2.58333L6.32786 2.52724L6.28321 2.33333H6.08424V2.58333ZM7.54307 1.61993L7.7867 1.56384L7.78668 1.56376L7.54307 1.61993ZM8.12947 4.16667L7.88584 4.22276L7.93049 4.41667H8.12947V4.16667ZM28.8347 4.48168L29.0317 4.32781L29.0316 4.32768L28.8347 4.48168ZM28.9684 5.17584L29.2081 5.2468L29.2082 5.24678L28.9684 5.17584ZM25.6872 16.2592L25.9269 16.3302L25.9269 16.3301L25.6872 16.2592ZM10.0258 16.8333V16.5833H10.0178L10.0098 16.5838L10.0258 16.8333ZM27.0922 5.75L27.3319 5.82097L27.4269 5.5H27.0922V5.75ZM24.2796 15.25V15.5H24.4663L24.5193 15.321L24.2796 15.25ZM8.49391 5.75V5.5H8.1798L8.25028 5.8061L8.49391 5.75ZM10.6814 15.25L10.4378 15.3061L10.4824 15.5H10.6814V15.25ZM10.0213 17.0835H10.0226V16.5835H10.0213V17.0835ZM9.45314 17.625C9.45314 17.3353 9.69988 17.0843 10.0219 17.0835L10.0207 16.5835C9.43998 16.5849 8.95314 17.043 8.95314 17.625H9.45314ZM10.0235 18.1667C9.70083 18.1667 9.45314 17.9151 9.45314 17.625H8.95314C8.95314 18.2078 9.44159 18.6667 10.0235 18.6667V18.1667ZM24.8985 18.1667H10.0235V18.6667H24.8985V18.1667ZM25.9688 19.2083C25.9688 18.6247 25.4812 18.1667 24.8985 18.1667V18.6667C25.222 18.6667 25.4688 18.9174 25.4688 19.2083H25.9688ZM24.8985 20.25C25.4812 20.25 25.9688 19.792 25.9688 19.2083H25.4688C25.4688 19.4992 25.222 19.75 24.8985 19.75V20.25ZM10.0235 20.25H24.8985V19.75H10.0235V20.25ZM7.31251 17.625C7.31251 19.0809 8.5369 20.25 10.0235 20.25V19.75C8.79614 19.75 7.81251 18.7882 7.81251 17.625H7.31251ZM8.9492 15.2153C7.99203 15.6169 7.31251 16.5419 7.31251 17.625H7.81251C7.81251 16.7591 8.3562 16.0063 9.14262 15.6764L8.9492 15.2153ZM5.84061 2.63943L8.80229 15.502L9.28954 15.3898L6.32786 2.52724L5.84061 2.63943ZM1.82031 2.83333H6.08424V2.33333H1.82031V2.83333ZM0.75 1.79167C0.75 2.37531 1.2376 2.83333 1.82031 2.83333V2.33333C1.49684 2.33333 1.25 2.08257 1.25 1.79167H0.75ZM1.82031 0.75C1.2376 0.75 0.75 1.20802 0.75 1.79167H1.25C1.25 1.50077 1.49684 1.25 1.82031 1.25V0.75ZM6.7422 0.75H1.82031V1.25H6.7422V0.75ZM7.78668 1.56376C7.67573 1.0826 7.23743 0.75 6.7422 0.75V1.25C7.01601 1.25 7.24336 1.43281 7.29946 1.67611L7.78668 1.56376ZM8.37309 4.11057L7.7867 1.56384L7.29945 1.67603L7.88584 4.22276L8.37309 4.11057ZM28.1797 3.91667H8.12947V4.41667H28.1797V3.91667ZM29.0316 4.32768C28.828 4.06725 28.5121 3.91667 28.1797 3.91667V4.41667C28.3622 4.41667 28.5312 4.49946 28.6378 4.63568L29.0316 4.32768ZM29.2082 5.24678C29.3021 4.92941 29.2357 4.58897 29.0317 4.32781L28.6377 4.63555C28.7435 4.77105 28.7762 4.94437 28.7287 5.1049L29.2082 5.24678ZM25.9269 16.3301L29.2081 5.2468L28.7287 5.10487L25.4475 16.1882L25.9269 16.3301ZM24.8985 17.0833C25.3703 17.0833 25.7934 16.7809 25.9269 16.3302L25.4475 16.1882C25.3797 16.417 25.159 16.5833 24.8985 16.5833V17.0833ZM10.0258 17.0833H24.8985V16.5833H10.0258V17.0833ZM10.0386 17.083L10.0418 17.0828L10.0098 16.5838L10.0066 16.5841L10.0386 17.083ZM26.8525 5.67903L24.0399 15.179L24.5193 15.321L27.3319 5.82097L26.8525 5.67903ZM8.49391 6H27.0922V5.5H8.49391V6ZM10.925 15.1939L8.73753 5.6939L8.25028 5.8061L10.4378 15.3061L10.925 15.1939ZM24.2796 15H10.6814V15.5H24.2796V15Z" fill="#F77866"/>
<path fill-rule="evenodd" clip-rule="evenodd" d="M11.5 25.7C10.1215 25.7 9 24.5784 9 23.2C9 21.8215 10.1215 20.7 11.5 20.7C12.8785 20.7 14 21.8215 14 23.2C14 24.5784 12.8785 25.7 11.5 25.7ZM12.3333 23.2C12.3333 22.7405 11.9594 22.3666 11.5 22.3666C11.0406 22.3666 10.6667 22.7405 10.6667 23.2C10.6667 23.6594 11.0406 24.0333 11.5 24.0333C11.9594 24.0333 12.3333 23.6594 12.3333 23.2Z" fill="#F77866"/>
<path fill-rule="evenodd" clip-rule="evenodd" d="M23.5 25.7C22.1215 25.7 21 24.5784 21 23.2C21 21.8215 22.1215 20.7 23.5 20.7C24.8785 20.7 26 21.8215 26 23.2C26 24.5784 24.8785 25.7 23.5 25.7ZM24.3333 23.2C24.3333 22.7405 23.9594 22.3666 23.5 22.3666C23.0406 22.3666 22.6667 22.7405 22.6667 23.2C22.6667 23.6594 23.0406 24.0333 23.5 24.0333C23.9594 24.0333 24.3333 23.6594 24.3333 23.2Z" fill="#F77866"/>
</svg>
