<svg width="73" height="73" viewBox="0 0 73 73" fill="none" xmlns="http://www.w3.org/2000/svg">
<g filter="url(#filter0_d)">
<path d="M36.3971 59.397C50.7565 59.397 62.3971 47.7564 62.3971 33.397C62.3971 19.0376 50.7565 7.39697 36.3971 7.39697C22.0377 7.39697 10.3971 19.0376 10.3971 33.397C10.3971 47.7564 22.0377 59.397 36.3971 59.397Z" fill="url(#paint0_linear)"/>
</g>
<rect x="10.3971" y="7.39697" width="52" height="52" rx="20" fill="url(#paint1_linear)"/>
<path d="M35.9609 42.416V49.397H37.4379V42.416C37.207 42.4796 36.9608 42.5096 36.7048 42.5096C36.4483 42.5096 36.1977 42.4751 35.9609 42.4106V42.416Z" fill="white"/>
<path d="M39.1713 36.0652V36.6018H37.6894H35.7202H34.2433V36.0652C32.21 35.1298 30.7971 33.0769 30.7971 30.6941C30.7971 27.4306 33.4457 24.7864 36.7048 24.7864C39.9688 24.7864 42.6125 27.4306 42.6125 30.6941C42.6125 33.0769 41.2045 35.1298 39.1713 36.0652Z" fill="url(#paint2_linear)"/>
<path d="M35.2368 29.2164C34.5579 29.2164 34.0055 29.7692 34.0055 30.4481C34.0055 30.7204 34.2256 30.9404 34.4978 30.9404C34.77 30.9404 34.9901 30.7204 34.9901 30.4481C34.9901 30.3118 35.1009 30.201 35.2368 30.201C35.3721 30.201 35.4829 30.3118 35.4829 30.4481C35.4829 30.7204 35.703 30.9404 35.9752 30.9404C36.2475 30.9404 36.4675 30.7204 36.4675 30.4481C36.4675 29.7692 35.9152 29.2164 35.2368 29.2164Z" fill="#FFD775"/>
<path d="M36.7142 29.2164C36.0353 29.2164 35.4829 29.7692 35.4829 30.4481C35.4829 30.7204 35.703 30.9404 35.9752 30.9404C36.2475 30.9404 36.4675 30.7204 36.4675 30.4481C36.4675 30.3118 36.5783 30.201 36.7142 30.201C36.8496 30.201 36.9603 30.3118 36.9603 30.4481C36.9603 30.7204 37.1804 30.9404 37.4526 30.9404C37.7249 30.9404 37.9449 30.7204 37.9449 30.4481C37.9449 29.7692 37.3926 29.2164 36.7142 29.2164Z" fill="#FFD775"/>
<path d="M38.1916 29.2164C37.5127 29.2164 36.9603 29.7692 36.9603 30.4481C36.9603 30.7204 37.1804 30.9404 37.4526 30.9404C37.7249 30.9404 37.9449 30.7204 37.9449 30.4481C37.9449 30.3118 38.0557 30.201 38.1916 30.201C38.327 30.201 38.4377 30.3118 38.4377 30.4481C38.4377 30.7204 38.6578 30.9404 38.9301 30.9404C39.2023 30.9404 39.4224 30.7204 39.4224 30.4481C39.4224 29.7692 38.87 29.2164 38.1916 29.2164Z" fill="#FFD775"/>
<path d="M34.4973 29.9558C34.4185 29.9558 34.3388 29.974 34.264 30.0143C34.0247 30.1433 33.9351 30.4422 34.0646 30.6814L35.7886 33.8794C35.9176 34.1187 36.2155 34.2093 36.4552 34.0783C36.6945 33.9494 36.7841 33.6515 36.6546 33.4118L34.9305 30.2137C34.8419 30.0488 34.6721 29.9558 34.4973 29.9558Z" fill="white"/>
<path d="M38.9305 29.9557C38.7557 29.9557 38.5859 30.0487 38.4968 30.2142L36.7722 33.4122C36.6427 33.6515 36.7323 33.9498 36.9716 34.0788C37.2118 34.2097 37.5097 34.1182 37.6382 33.8799L39.3627 30.6819C39.4922 30.4426 39.4026 30.1433 39.1634 30.0148C39.089 29.9739 39.0093 29.9557 38.9305 29.9557Z" fill="white"/>
<path d="M36.7058 18.3816C36.4336 18.3816 36.2135 18.6017 36.2135 18.8739V22.8124C36.2135 23.0846 36.4336 23.3047 36.7058 23.3047C36.9781 23.3047 37.1981 23.0846 37.1981 22.8124V18.8739C37.1981 18.6017 36.9781 18.3816 36.7058 18.3816Z" fill="white"/>
<path d="M42.6134 19.9644C42.4431 19.9644 42.2777 20.053 42.1866 20.2106L40.2173 23.6213C40.0815 23.8571 40.1622 24.1579 40.3975 24.2943C40.6319 24.4296 40.9337 24.3499 41.07 24.1136L43.0393 20.7029C43.1751 20.4671 43.0944 20.1663 42.8591 20.0309C42.7818 19.9856 42.6971 19.9644 42.6134 19.9644Z" fill="white"/>
<path d="M46.9364 24.2893C46.8527 24.2893 46.7681 24.3105 46.6908 24.3548L43.2801 26.324C43.0442 26.4594 42.9635 26.7607 43.0999 26.996C43.2362 27.2319 43.537 27.3126 43.7724 27.1767L47.1831 25.2075C47.4189 25.0721 47.4996 24.7708 47.3633 24.5355C47.2722 24.3779 47.1068 24.2893 46.9364 24.2893Z" fill="white"/>
<path d="M44.5817 30.196C44.3099 30.196 44.0894 30.4161 44.0894 30.6884C44.0894 30.9596 44.3094 31.1807 44.5817 31.1807H48.5196C48.7914 31.1807 49.0119 30.9606 49.0119 30.6884C49.0119 30.4171 48.7919 30.196 48.5196 30.196H44.5817Z" fill="white"/>
<path d="M28.8288 30.196H24.8899C24.6176 30.196 24.3976 30.4161 24.3976 30.6884C24.3976 30.9606 24.6176 31.1807 24.8899 31.1807H28.8288C29.1011 31.1807 29.3212 30.9606 29.3212 30.6884C29.3212 30.4161 29.1011 30.196 28.8288 30.196Z" fill="white"/>
<path d="M26.4732 24.2882C26.3028 24.2882 26.1374 24.3768 26.0463 24.5343C25.9104 24.7702 25.9912 25.071 26.2265 25.2073L29.6382 27.1766C29.873 27.3119 30.1743 27.2312 30.3107 26.9959C30.4466 26.7601 30.3658 26.4593 30.1305 26.3239L26.7188 24.3546C26.6415 24.3094 26.5568 24.2882 26.4732 24.2882Z" fill="white"/>
<path d="M30.7971 19.9633C30.7134 19.9633 30.6287 19.9844 30.5514 20.0297C30.3156 20.1651 30.2349 20.4664 30.3712 20.7017L32.341 24.1134C32.4768 24.3497 32.7781 24.43 33.0135 24.2931C33.2493 24.1577 33.33 23.8564 33.1936 23.6211L31.2239 20.2094C31.1328 20.0519 30.9674 19.9633 30.7971 19.9633Z" fill="white"/>
<path d="M36.7048 32.6643C36.1628 32.6643 35.7202 33.103 35.7202 33.6489V37.5874H37.6894V33.6489C37.6894 33.1025 37.2508 32.6643 36.7048 32.6643Z" fill="#E6E9ED"/>
<path d="M36.7048 42.5095C36.9608 42.5095 37.207 42.4795 37.4379 42.4165C38.7184 42.0916 39.6636 40.9336 39.6636 39.5557H39.6587V37.0941L39.1713 36.6018H37.6894H35.7202H34.2433L33.751 37.0941V36.6117V39.5508V39.5557C33.751 40.9287 34.6913 42.0856 35.9609 42.4106C36.1977 42.4746 36.4483 42.5095 36.7048 42.5095Z" fill="#EDEDED"/>
<path d="M39.1659 36.6123H34.2438C33.9715 36.6123 33.7515 36.8324 33.7515 37.1046C33.7515 37.3769 33.9715 37.5969 34.2438 37.5969H39.1659C39.4381 37.5969 39.6582 37.3769 39.6582 37.1046C39.6582 36.8324 39.4381 36.6123 39.1659 36.6123Z" fill="#656D78"/>
<defs>
<filter id="filter0_d" x="0.397095" y="0.396973" width="72" height="72" filterUnits="userSpaceOnUse" color-interpolation-filters="sRGB">
<feFlood flood-opacity="0" result="BackgroundImageFix"/>
<feColorMatrix in="SourceAlpha" type="matrix" values="0 0 0 0 0 0 0 0 0 0 0 0 0 0 0 0 0 0 127 0"/>
<feOffset dy="3"/>
<feGaussianBlur stdDeviation="5"/>
<feColorMatrix type="matrix" values="0 0 0 0 0.313726 0 0 0 0 0.345098 0 0 0 0 0.384314 0 0 0 0.3 0"/>
<feBlend mode="normal" in2="BackgroundImageFix" result="effect1_dropShadow"/>
<feBlend mode="normal" in="SourceGraphic" in2="effect1_dropShadow" result="shape"/>
</filter>
<linearGradient id="paint0_linear" x1="62.3971" y1="59.397" x2="62.3971" y2="7.39697" gradientUnits="userSpaceOnUse">
<stop stop-color="#505862"/>
<stop offset="1" stop-color="#9D9E9F"/>
</linearGradient>
<linearGradient id="paint1_linear" x1="62.3971" y1="59.397" x2="62.3971" y2="7.39697" gradientUnits="userSpaceOnUse">
<stop stop-color="#505862"/>
<stop offset="1" stop-color="#9D9E9F"/>
</linearGradient>
<linearGradient id="paint2_linear" x1="30.4995" y1="37.197" x2="30.4995" y2="24.7864" gradientUnits="userSpaceOnUse">
<stop stop-color="white"/>
<stop offset="1" stop-color="white" stop-opacity="0.802448"/>
</linearGradient>
</defs>
</svg>
