<svg width="25" height="24" viewBox="0 0 25 24" fill="none" xmlns="http://www.w3.org/2000/svg">
<mask id="mask0" mask-type="alpha" maskUnits="userSpaceOnUse" x="0" y="0" width="25" height="24">
<rect x="0.5" y="0.5" width="24" height="23" fill="white"/>
</mask>
<g mask="url(#mask0)">
<path fill-rule="evenodd" clip-rule="evenodd" d="M24.1637 10.2301L13.097 0.853387C12.7899 0.593142 12.3309 0.593142 12.0239 0.853387L0.957141 10.2301C0.632338 10.5195 0.605592 11.0066 0.896872 11.3276C1.18815 11.6486 1.69113 11.6864 2.03025 11.4128L2.88674 10.6865V22.3862C2.88674 22.8208 3.25114 23.1731 3.70065 23.1731H21.4214C21.8709 23.1731 22.2353 22.8208 22.2353 22.3862V10.6925L23.0918 11.4189C23.4309 11.6925 23.9339 11.6546 24.2252 11.3336C24.5165 11.0126 24.4897 10.5256 24.1649 10.2362L24.1637 10.2301ZM10.6828 21.5994V15.1194H14.4393V21.5994H10.6828ZM20.6075 21.6006V9.31497V9.31376C20.6075 9.31326 20.6076 9.31296 20.6076 9.31281L20.6088 9.31376C20.6088 9.31376 20.608 9.31223 20.6076 9.31281L12.5623 2.49607L4.51582 9.31376V21.6006H9.0562V14.3374C9.0562 13.9029 9.4206 13.5506 9.87011 13.5506H15.2545C15.704 13.5506 16.0684 13.9029 16.0684 14.3374V21.6006H20.6075Z" fill="#F77866"/>
<path d="M13.097 0.853387L12.9353 1.0441L12.9354 1.04413L13.097 0.853387ZM24.1637 10.2301L24.4085 10.1794L24.391 10.0951L24.3253 10.0394L24.1637 10.2301ZM12.0239 0.853387L12.1855 1.04413L12.1855 1.0441L12.0239 0.853387ZM0.957141 10.2301L0.795479 10.0393L0.790829 10.0435L0.957141 10.2301ZM0.896872 11.3276L1.08202 11.1596L0.896872 11.3276ZM2.03025 11.4128L2.18728 11.6074L2.19195 11.6035L2.03025 11.4128ZM2.88674 10.6865H3.13674V10.1467L2.72505 10.4958L2.88674 10.6865ZM22.2353 10.6925L22.397 10.5019L21.9853 10.1528V10.6925H22.2353ZM23.0918 11.4189L22.9301 11.6096L22.9348 11.6134L23.0918 11.4189ZM24.1649 10.2362L23.9201 10.2869L23.9369 10.3678L23.9986 10.4228L24.1649 10.2362ZM10.6828 15.1194V14.8694H10.4328V15.1194H10.6828ZM10.6828 21.5994H10.4328V21.8494H10.6828V21.5994ZM14.4393 15.1194H14.6893V14.8694H14.4393V15.1194ZM14.4393 21.5994V21.8494H14.6893V21.5994H14.4393ZM20.6075 21.6006V21.8506H20.8575V21.6006H20.6075ZM20.6088 9.31376L20.4471 9.50447L20.8308 9.19896L20.6088 9.31376ZM12.5623 2.49607L12.7239 2.30533L12.5623 2.1684L12.4007 2.30533L12.5623 2.49607ZM4.51582 9.31376L4.35421 9.12302L4.26582 9.19791V9.31376H4.51582ZM4.51582 21.6006H4.26582V21.8506H4.51582V21.6006ZM9.0562 21.6006V21.8506H9.3062V21.6006H9.0562ZM16.0684 21.6006H15.8184V21.8506H16.0684V21.6006ZM12.9354 1.04413L24.0021 10.4209L24.3253 10.0394L13.2586 0.662647L12.9354 1.04413ZM12.1855 1.0441C12.3993 0.862903 12.7215 0.862903 12.9353 1.0441L13.2586 0.662671C12.8583 0.32338 12.2625 0.32338 11.8622 0.662671L12.1855 1.0441ZM1.11875 10.4209L12.1855 1.04413L11.8622 0.662647L0.795529 10.0394L1.11875 10.4209ZM1.08202 11.1596C0.884685 10.9421 0.901757 10.6143 1.12345 10.4168L0.790829 10.0435C0.36292 10.4247 0.3265 11.071 0.711727 11.4956L1.08202 11.1596ZM1.87327 11.2182C1.63634 11.4094 1.28354 11.3817 1.08202 11.1596L0.711727 11.4956C1.09276 11.9155 1.74591 11.9634 2.18723 11.6074L1.87327 11.2182ZM2.72505 10.4958L1.86856 11.2221L2.19195 11.6035L3.04843 10.8772L2.72505 10.4958ZM3.13674 22.3862V10.6865H2.63674V22.3862H3.13674ZM3.70065 22.9231C3.38118 22.9231 3.13674 22.6748 3.13674 22.3862H2.63674C2.63674 22.9668 3.12111 23.4231 3.70065 23.4231V22.9231ZM21.4214 22.9231H3.70065V23.4231H21.4214V22.9231ZM21.9853 22.3862C21.9853 22.6748 21.7409 22.9231 21.4214 22.9231V23.4231C22.001 23.4231 22.4853 22.9668 22.4853 22.3862H21.9853ZM21.9853 10.6925V22.3862H22.4853V10.6925H21.9853ZM23.2535 11.2282L22.397 10.5019L22.0736 10.8832L22.9301 11.6095L23.2535 11.2282ZM24.0401 11.1656C23.8385 11.3877 23.4857 11.4154 23.2488 11.2243L22.9348 11.6134C23.3762 11.9695 24.0293 11.9216 24.4103 11.5016L24.0401 11.1656ZM23.9986 10.4228C24.2203 10.6204 24.2374 10.9482 24.0401 11.1656L24.4103 11.5016C24.7956 11.0771 24.7592 10.4308 24.3312 10.0495L23.9986 10.4228ZM23.9189 10.2808L23.9201 10.2869L24.4097 10.1855L24.4085 10.1794L23.9189 10.2808ZM10.4328 15.1194V21.5994H10.9328V15.1194H10.4328ZM14.4393 14.8694H10.6828V15.3694H14.4393V14.8694ZM14.6893 21.5994V15.1194H14.1893V21.5994H14.6893ZM10.6828 21.8494H14.4393V21.3494H10.6828V21.8494ZM20.3575 9.31497V21.6006H20.8575V9.31497H20.3575ZM20.3575 9.31376V9.31497H20.8575V9.31376H20.3575ZM20.3892 9.19117C20.3551 9.25243 20.3575 9.31083 20.3575 9.31376H20.8575C20.8575 9.32173 20.8571 9.3353 20.8545 9.35197C20.8523 9.36595 20.8462 9.39829 20.8261 9.43446L20.3892 9.19117ZM20.446 9.50352L20.4471 9.50447L20.7704 9.12304L20.7693 9.1221L20.446 9.50352ZM20.6088 9.31376C20.8308 9.19896 20.8308 9.19893 20.8308 9.19889C20.8308 9.19888 20.8308 9.19884 20.8308 9.19882C20.8307 9.19877 20.8307 9.19872 20.8307 9.19868C20.8306 9.19858 20.8306 9.19848 20.8305 9.19839C20.8304 9.19819 20.8303 9.19799 20.8302 9.19779C20.83 9.19739 20.8298 9.19697 20.8296 9.19653C20.8291 9.19567 20.8286 9.19472 20.8281 9.19371C20.827 9.19172 20.8256 9.18927 20.8239 9.18649C20.8213 9.18204 20.8153 9.17211 20.8064 9.16048C20.8041 9.15754 20.7754 9.11757 20.7219 9.09021C20.6909 9.0743 20.6255 9.04961 20.5444 9.07085C20.4591 9.0932 20.4115 9.15161 20.3898 9.19025L20.8255 9.43538C20.8039 9.47386 20.7564 9.5322 20.6711 9.55452C20.5902 9.57574 20.5249 9.55106 20.494 9.53521C20.4627 9.51918 20.4421 9.50022 20.4329 9.4912C20.4223 9.48075 20.4147 9.47139 20.4103 9.46565C20.4016 9.45433 20.3958 9.44474 20.3933 9.44056C20.3917 9.43791 20.3904 9.43558 20.3894 9.43367C20.3889 9.4327 20.3884 9.43179 20.3879 9.43094C20.3877 9.43052 20.3875 9.43011 20.3873 9.42971C20.3872 9.42951 20.3871 9.42931 20.387 9.42912C20.3869 9.42902 20.3869 9.42893 20.3868 9.42883C20.3868 9.42879 20.3868 9.42874 20.3867 9.42869C20.3867 9.42867 20.3867 9.42863 20.3867 9.42862C20.3867 9.42859 20.3867 9.42855 20.6088 9.31376ZM12.4007 2.68681L20.446 9.50355L20.7693 9.12207L12.7239 2.30533L12.4007 2.68681ZM4.67743 9.50449L12.7239 2.68681L12.4007 2.30533L4.35421 9.12302L4.67743 9.50449ZM4.76582 21.6006V9.31376H4.26582V21.6006H4.76582ZM9.0562 21.3506H4.51582V21.8506H9.0562V21.3506ZM8.8062 14.3374V21.6006H9.3062V14.3374H8.8062ZM9.87011 13.3006C9.29057 13.3006 8.8062 13.7569 8.8062 14.3374H9.3062C9.3062 14.0489 9.55064 13.8006 9.87011 13.8006V13.3006ZM15.2545 13.3006H9.87011V13.8006H15.2545V13.3006ZM16.3184 14.3374C16.3184 13.7569 15.834 13.3006 15.2545 13.3006V13.8006C15.5739 13.8006 15.8184 14.0489 15.8184 14.3374H16.3184ZM16.3184 21.6006V14.3374H15.8184V21.6006H16.3184ZM20.6075 21.3506H16.0684V21.8506H20.6075V21.3506Z" fill="#F77866"/>
</g>
</svg>
