<svg width="73" height="73" viewBox="0 0 73 73" fill="none" xmlns="http://www.w3.org/2000/svg">
<g filter="url(#filter0_d)">
<path d="M36.397 59.397C50.7564 59.397 62.397 47.7564 62.397 33.397C62.397 19.0376 50.7564 7.39697 36.397 7.39697C22.0376 7.39697 10.397 19.0376 10.397 33.397C10.397 47.7564 22.0376 59.397 36.397 59.397Z" fill="url(#paint0_linear)"/>
</g>
<rect x="10.397" y="7.39697" width="52" height="52" rx="20" fill="url(#paint1_linear)"/>
<path d="M48.8521 45.3638L47.2962 35.1319C47.013 33.2693 46.2468 31.5244 45.0914 30.0645C42.7439 30.6293 40.3542 30.9554 37.9579 31.0427L38.9182 31.7271C39.3136 32.0088 39.4056 32.5576 39.1239 32.9529C38.9524 33.1935 38.682 33.3218 38.4074 33.3218C38.2309 33.3218 38.0527 33.2688 37.8981 33.1586L36.643 32.2642L35.3879 33.1586C35.2333 33.2688 35.0551 33.3218 34.8786 33.3218C34.604 33.3218 34.3336 33.1936 34.1621 32.9529C33.8804 32.5576 33.9725 32.0088 34.3678 31.7271L35.3282 31.0427C32.9319 30.9554 30.5421 30.6293 28.1946 30.0645C27.0393 31.5245 26.273 33.2693 25.9898 35.1319L24.4339 45.3638C24.3182 46.1244 24.5395 46.8952 25.0409 47.4788C25.5424 48.0622 26.2713 48.3969 27.0406 48.3969H29.3691L29.8718 44.2018C29.9295 43.7198 30.367 43.3761 30.849 43.4337C31.331 43.4914 31.6749 43.929 31.6171 44.411L31.1395 48.3969H35.7641V44.3064C35.7641 43.821 36.1576 43.4275 36.643 43.4275C37.1284 43.4275 37.5219 43.821 37.5219 44.3064V48.3969H42.1466L41.669 44.411C41.6112 43.929 41.9551 43.4915 42.4371 43.4337C42.9196 43.3762 43.3565 43.7199 43.4143 44.2018L43.917 48.3969H46.2454C47.0148 48.3969 47.7436 48.0622 48.2451 47.4788C48.7466 46.8952 48.9679 46.1244 48.8521 45.3638Z" fill="url(#paint2_linear)"/>
<path d="M47.6324 20.1478C47.0731 19.0678 45.9703 18.397 44.7541 18.397H40.6925C40.2747 18.397 39.9147 18.6911 39.8313 19.1004C39.5244 20.607 38.1834 21.7004 36.643 21.7004C35.1025 21.7004 33.7616 20.607 33.4547 19.1004C33.3713 18.6911 33.0113 18.397 32.5935 18.397H28.5318C27.3157 18.397 26.2128 19.0678 25.6535 20.1478C25.1607 21.0996 25.1698 22.2313 25.678 23.175C26.1863 24.1187 27.126 24.7492 28.192 24.8616L28.8252 24.9284V28.407C33.9683 29.6087 39.3176 29.6087 44.4607 28.407V24.9284L45.0939 24.8616C46.1599 24.7492 47.0997 24.1187 47.6079 23.175C48.1161 22.2313 48.1252 21.0996 47.6324 20.1478Z" fill="white"/>
<defs>
<filter id="filter0_d" x="0.396973" y="0.396973" width="72" height="72" filterUnits="userSpaceOnUse" color-interpolation-filters="sRGB">
<feFlood flood-opacity="0" result="BackgroundImageFix"/>
<feColorMatrix in="SourceAlpha" type="matrix" values="0 0 0 0 0 0 0 0 0 0 0 0 0 0 0 0 0 0 127 0"/>
<feOffset dy="3"/>
<feGaussianBlur stdDeviation="5"/>
<feColorMatrix type="matrix" values="0 0 0 0 0.231373 0 0 0 0 0.666667 0 0 0 0 0.952941 0 0 0 0.3 0"/>
<feBlend mode="normal" in2="BackgroundImageFix" result="effect1_dropShadow"/>
<feBlend mode="normal" in="SourceGraphic" in2="effect1_dropShadow" result="shape"/>
</filter>
<linearGradient id="paint0_linear" x1="10.397" y1="7.39697" x2="10.397" y2="59.397" gradientUnits="userSpaceOnUse">
<stop stop-color="#7AD0FF"/>
<stop offset="1" stop-color="#3AA9F3"/>
</linearGradient>
<linearGradient id="paint1_linear" x1="10.397" y1="7.39697" x2="10.397" y2="59.397" gradientUnits="userSpaceOnUse">
<stop stop-color="#7AD0FF"/>
<stop offset="1" stop-color="#3AA9F3"/>
</linearGradient>
<linearGradient id="paint2_linear" x1="23.7873" y1="29.141" x2="23.7873" y2="48.3969" gradientUnits="userSpaceOnUse">
<stop stop-color="white"/>
<stop offset="1" stop-color="white" stop-opacity="0.802448"/>
</linearGradient>
</defs>
</svg>
