<svg width="12" height="21" viewBox="0 0 12 21" fill="none" xmlns="http://www.w3.org/2000/svg">
<path d="M1.14441e-05 10.5C-0.000484467 10.8665 0.148551 11.2173 0.412662 11.4713L8.51236 19.571C8.8646 19.9202 9.38002 20.0479 9.85457 19.9037C10.3291 19.7595 10.6863 19.3665 10.7847 18.8804C10.8831 18.3943 10.7068 17.8934 10.3257 17.576L3.25606 10.5L10.4223 3.33693C10.7633 2.99594 10.8965 2.49893 10.7717 2.03312C10.6469 1.56732 10.283 1.20349 9.81721 1.07868C9.35141 0.953863 8.8544 1.08704 8.51341 1.42803L0.413712 9.52773C0.148952 9.78182 -0.000496864 10.1331 1.14441e-05 10.5Z" fill="#F77866"/>
</svg>
