<svg width="73" height="73" viewBox="0 0 73 73" fill="none" xmlns="http://www.w3.org/2000/svg">
<g filter="url(#filter0_d)">
<path d="M36.3971 59.397C50.7565 59.397 62.3971 47.7564 62.3971 33.397C62.3971 19.0376 50.7565 7.39697 36.3971 7.39697C22.0377 7.39697 10.3971 19.0376 10.3971 33.397C10.3971 47.7564 22.0377 59.397 36.3971 59.397Z" fill="url(#paint0_linear)"/>
</g>
<rect x="10.3971" y="7.39697" width="52" height="52" rx="20" fill="url(#paint1_linear)"/>
<path d="M43.103 31.6059C43.1036 32.0318 42.9245 32.4395 42.6071 32.7347L32.8734 42.1483C32.4501 42.5541 31.8307 42.7026 31.2604 42.535C30.6902 42.3674 30.2609 41.9107 30.1427 41.3457C30.0245 40.7807 30.2363 40.1986 30.6943 39.8297L39.1901 31.6059L30.5782 23.2808C30.1684 22.8845 30.0083 22.3069 30.1583 21.7655C30.3083 21.2242 30.7456 20.8013 31.3053 20.6563C31.8651 20.5112 32.4624 20.666 32.8722 21.0623L42.6059 30.4759C42.924 30.7712 43.1036 31.1794 43.103 31.6059Z" fill="white"/>
<defs>
<filter id="filter0_d" x="0.397095" y="0.396973" width="72" height="72" filterUnits="userSpaceOnUse" color-interpolation-filters="sRGB">
<feFlood flood-opacity="0" result="BackgroundImageFix"/>
<feColorMatrix in="SourceAlpha" type="matrix" values="0 0 0 0 0 0 0 0 0 0 0 0 0 0 0 0 0 0 127 0"/>
<feOffset dy="3"/>
<feGaussianBlur stdDeviation="5"/>
<feColorMatrix type="matrix" values="0 0 0 0 0.313726 0 0 0 0 0.345098 0 0 0 0 0.384314 0 0 0 0.3 0"/>
<feBlend mode="normal" in2="BackgroundImageFix" result="effect1_dropShadow"/>
<feBlend mode="normal" in="SourceGraphic" in2="effect1_dropShadow" result="shape"/>
</filter>
<linearGradient id="paint0_linear" x1="62.3971" y1="59.397" x2="62.3971" y2="7.39697" gradientUnits="userSpaceOnUse">
<stop stop-color="#505862"/>
<stop offset="1" stop-color="#9D9E9F"/>
</linearGradient>
<linearGradient id="paint1_linear" x1="62.3971" y1="59.397" x2="62.3971" y2="7.39697" gradientUnits="userSpaceOnUse">
<stop stop-color="#505862"/>
<stop offset="1" stop-color="#9D9E9F"/>
</linearGradient>
</defs>
</svg>
