<svg width="33" height="26" viewBox="0 0 33 26" fill="none" xmlns="http://www.w3.org/2000/svg">
<path fill-rule="evenodd" clip-rule="evenodd" d="M4.8439 1.04883H28.5967C30.7171 1.04883 32.4407 2.77891 32.4341 4.89923V21.1269C32.4341 23.2472 30.7106 24.9708 28.5902 24.9708H4.8439C2.72358 24.9708 1 23.2472 1 21.1269V4.89273C1 2.77241 2.72358 1.04883 4.8439 1.04883ZM28.5967 23.2147C29.748 23.2147 30.6846 22.2781 30.6846 21.1269H30.678V4.89923C30.678 3.74801 29.7415 2.81143 28.5902 2.81143H4.8439C3.69268 2.81143 2.7561 3.74801 2.7561 4.89923V21.1269C2.7561 22.2781 3.69268 23.2147 4.8439 23.2147H28.5967Z" fill="#727C8E"/>
<path d="M32.4341 4.89923L32.2341 4.89862V4.89923H32.4341ZM30.6846 21.1269H30.8846V20.9269H30.6846V21.1269ZM30.678 21.1269H30.478V21.3269H30.678V21.1269ZM28.5967 0.848828H4.8439V1.24883H28.5967V0.848828ZM32.6341 4.89985C32.641 2.66891 30.8279 0.848828 28.5967 0.848828V1.24883C30.6063 1.24883 32.2403 2.88891 32.2341 4.89862L32.6341 4.89985ZM32.6341 21.1269V4.89923H32.2341V21.1269H32.6341ZM28.5902 25.1708C30.821 25.1708 32.6341 23.3577 32.6341 21.1269H32.2341C32.2341 23.1367 30.6001 24.7708 28.5902 24.7708V25.1708ZM4.8439 25.1708H28.5902V24.7708H4.8439V25.1708ZM0.8 21.1269C0.8 23.3577 2.61312 25.1708 4.8439 25.1708V24.7708C2.83403 24.7708 1.2 23.1367 1.2 21.1269H0.8ZM0.8 4.89273V21.1269H1.2V4.89273H0.8ZM4.8439 0.848828C2.61312 0.848828 0.8 2.66195 0.8 4.89273H1.2C1.2 2.88286 2.83403 1.24883 4.8439 1.24883V0.848828ZM30.4846 21.1269C30.4846 22.1676 29.6375 23.0147 28.5967 23.0147V23.4147C29.8584 23.4147 30.8846 22.3886 30.8846 21.1269H30.4846ZM30.678 21.3269H30.6846V20.9269H30.678V21.3269ZM30.478 4.89923V21.1269H30.878V4.89923H30.478ZM28.5902 3.01143C29.631 3.01143 30.478 3.85847 30.478 4.89923H30.878C30.878 3.63756 29.8519 2.61143 28.5902 2.61143V3.01143ZM4.8439 3.01143H28.5902V2.61143H4.8439V3.01143ZM2.9561 4.89923C2.9561 3.85847 3.80314 3.01143 4.8439 3.01143V2.61143C3.58223 2.61143 2.5561 3.63756 2.5561 4.89923H2.9561ZM2.9561 21.1269V4.89923H2.5561V21.1269H2.9561ZM4.8439 23.0147C3.80314 23.0147 2.9561 22.1676 2.9561 21.1269H2.5561C2.5561 22.3886 3.58223 23.4147 4.8439 23.4147V23.0147ZM28.5967 23.0147H4.8439V23.4147H28.5967V23.0147Z" fill="#727C8E"/>
<path d="M20.8244 12.8081L28.5122 5.91379C28.87 5.58859 28.9025 5.03574 28.5773 4.67151C28.2521 4.31379 27.6992 4.28127 27.335 4.60647L16.7334 14.1219L14.6651 12.2748C14.6586 12.2683 14.6521 12.2618 14.6521 12.2553C14.6066 12.2097 14.561 12.1707 14.509 12.1317L6.09273 4.59997C5.7285 4.27476 5.17566 4.30728 4.85046 4.67151C4.52525 5.03574 4.55777 5.58859 4.922 5.91379L12.7009 12.8666L4.95452 20.1187C4.6033 20.4504 4.58379 21.0032 4.9155 21.3609C5.09111 21.5431 5.32525 21.6406 5.5594 21.6406C5.77403 21.6406 5.98867 21.5626 6.15777 21.4065L14.0212 14.0504L16.1545 15.9561C16.3236 16.1057 16.5318 16.1772 16.7399 16.1772C16.948 16.1772 17.1627 16.0992 17.3253 15.9496L19.5171 13.9853L27.335 21.413C27.5041 21.5756 27.7253 21.6536 27.9399 21.6536C28.174 21.6536 28.4017 21.5626 28.5773 21.3805C28.909 21.0292 28.896 20.4699 28.5448 20.1382L20.8244 12.8081Z" fill="#727C8E" stroke="#727C8E" stroke-width="0.4"/>
</svg>
