<svg width="73" height="73" viewBox="0 0 73 73" fill="none" xmlns="http://www.w3.org/2000/svg">
<g filter="url(#filter0_d)">
<path d="M36.7939 59.7939C51.1534 59.7939 62.7939 48.1534 62.7939 33.7939C62.7939 19.4345 51.1534 7.79395 36.7939 7.79395C22.4345 7.79395 10.7939 19.4345 10.7939 33.7939C10.7939 48.1534 22.4345 59.7939 36.7939 59.7939Z" fill="url(#paint0_linear)"/>
</g>
<rect x="10.7939" y="7.79395" width="52" height="52" rx="20" fill="url(#paint1_linear)"/>
<path d="M36.7699 23.3352C38.0673 23.3352 39.1879 22.5079 39.5905 21.291C38.8224 21.5024 37.8435 21.63 36.7699 21.63C35.6964 21.63 34.7174 21.5024 33.9495 21.291C34.3518 22.5078 35.4724 23.3352 36.7699 23.3352Z" fill="white"/>
<path d="M51.7087 24.8317C51.647 24.6588 51.5188 24.5166 51.3518 24.4392L45.6414 21.803C44.4267 21.3915 43.1892 21.0665 41.9396 20.8289C41.8956 20.8203 41.8518 20.8162 41.8087 20.8162C41.4993 20.8162 41.2223 21.0297 41.1534 21.3429C40.6971 23.3517 38.9189 24.8556 36.7699 24.8556C34.6209 24.8556 32.8426 23.3518 32.3864 21.3429C32.3167 21.0297 32.0402 20.8162 31.7311 20.8162C31.6879 20.8162 31.6441 20.8203 31.6001 20.8289C30.3507 21.0665 29.1132 21.3915 27.8966 21.803L22.1881 24.4391C22.0201 24.5165 21.891 24.6587 21.8323 24.8316C21.7716 25.0065 21.7825 25.1954 21.8681 25.3604L24.3471 30.2528C24.4632 30.485 24.6992 30.6243 24.949 30.6243C25.0134 30.6243 25.0788 30.615 25.1432 30.5957L27.8967 29.7796V46.1955C27.8967 46.5682 28.2008 46.8723 28.5746 46.8723H44.9654C45.3382 46.8723 45.6415 46.5681 45.6415 46.1955V29.7798L48.3968 30.5959C48.4613 30.6152 48.5265 30.6245 48.5909 30.6245C48.8401 30.6245 49.0752 30.4852 49.1929 30.253L51.6729 25.3606C51.7564 25.1955 51.7683 25.0066 51.7087 24.8317Z" fill="url(#paint2_linear)"/>
<defs>
<filter id="filter0_d" x="0.793945" y="0.793945" width="72" height="72" filterUnits="userSpaceOnUse" color-interpolation-filters="sRGB">
<feFlood flood-opacity="0" result="BackgroundImageFix"/>
<feColorMatrix in="SourceAlpha" type="matrix" values="0 0 0 0 0 0 0 0 0 0 0 0 0 0 0 0 0 0 127 0"/>
<feOffset dy="3"/>
<feGaussianBlur stdDeviation="5"/>
<feColorMatrix type="matrix" values="0 0 0 0 1 0 0 0 0 0.486275 0 0 0 0 0.447059 0 0 0 0.3 0"/>
<feBlend mode="normal" in2="BackgroundImageFix" result="effect1_dropShadow"/>
<feBlend mode="normal" in="SourceGraphic" in2="effect1_dropShadow" result="shape"/>
</filter>
<linearGradient id="paint0_linear" x1="62.7939" y1="59.7939" x2="62.7939" y2="7.79395" gradientUnits="userSpaceOnUse">
<stop stop-color="#FF7171"/>
<stop offset="1" stop-color="#FFBC6C"/>
</linearGradient>
<linearGradient id="paint1_linear" x1="62.7939" y1="59.7939" x2="62.7939" y2="7.79395" gradientUnits="userSpaceOnUse">
<stop stop-color="#FF7171"/>
<stop offset="1" stop-color="#FFBC6C"/>
</linearGradient>
<linearGradient id="paint2_linear" x1="18.8691" y1="15.7273" x2="18.8691" y2="46.8723" gradientUnits="userSpaceOnUse">
<stop stop-color="white"/>
<stop offset="1" stop-color="white" stop-opacity="0.700639"/>
<stop offset="1" stop-color="white" stop-opacity="0.793597"/>
</linearGradient>
</defs>
</svg>
