<svg width="27" height="25" viewBox="0 0 27 25" fill="none" xmlns="http://www.w3.org/2000/svg">
<mask id="mask0" mask-type="alpha" maskUnits="userSpaceOnUse" x="0" y="0" width="27" height="25">
<rect x="0.478271" width="26.087" height="25" fill="white"/>
</mask>
<g mask="url(#mask0)">
<path fill-rule="evenodd" clip-rule="evenodd" d="M19.2536 14.8861C20.5382 15.4281 21.7386 16.1513 22.8183 17.0335C23.8593 18.2899 24.4282 19.8708 24.4263 21.5025C24.4341 22.01 24.2379 22.4995 23.8817 22.8611C23.5255 23.2227 23.0391 23.4264 22.5315 23.4263H3.58417C3.07658 23.4264 2.59019 23.2227 2.23401 22.8611C1.87783 22.4995 1.68165 22.01 1.68943 21.5025C1.68754 19.8718 2.25592 18.2918 3.29617 17.036C4.37594 16.1539 5.5763 15.4308 6.8608 14.8886C7.81361 14.4543 8.72948 13.9431 9.59933 13.3602C8.18231 11.7538 7.34328 9.71954 7.21575 7.58124C7.11681 6.15625 7.35571 4.72804 7.91301 3.41282C8.53954 2.16987 9.94164 0.689453 13.0579 0.689453C16.1741 0.689453 17.5762 2.16987 18.204 3.4103C18.7605 4.72572 18.9989 6.15385 18.9 7.57872C18.7715 9.71679 17.9326 11.7507 16.5164 13.3577C17.386 13.9402 18.3015 14.4513 19.2536 14.8861ZM22.5303 22.0052C22.6575 22.0055 22.7795 21.9545 22.8688 21.8638C22.9564 21.7749 23.0054 21.6551 23.0052 21.5303C23.0174 20.2667 22.5971 19.037 21.8141 18.0452C20.8342 17.2847 19.76 16.6542 18.6183 16.1695C17.5283 15.6989 16.4955 15.1056 15.54 14.401L14.5812 13.4953L15.4136 12.4722C16.6224 11.1176 17.3486 9.4009 17.4789 7.59008C17.5718 6.38496 17.3855 5.17464 16.9345 4.05324C16.1476 2.68808 14.6224 1.92374 13.0579 2.11051C11.4932 1.9234 9.96784 2.68782 9.18122 4.05324C8.73103 5.17266 8.54474 6.38073 8.6368 7.58377C8.76841 9.39436 9.49547 11.1105 10.7046 12.4646L11.537 13.4878L10.5783 14.3947C9.62288 15.0995 8.59007 15.6928 7.49996 16.1631C6.3581 16.6484 5.28357 17.2789 4.30291 18.0389C3.52939 19.0359 3.11025 20.2622 3.11175 21.524C3.11054 21.6508 3.15958 21.773 3.24817 21.8638C3.33681 21.9539 3.45778 22.0048 3.58417 22.0052H22.5303Z" fill="#F77866"/>
<path d="M22.8183 17.0335L23.1263 16.7782L23.1015 16.7483L23.0714 16.7237L22.8183 17.0335ZM19.2536 14.8861L19.0874 15.2501L19.0981 15.2546L19.2536 14.8861ZM24.4263 21.5025L24.0262 21.502L24.0263 21.5086L24.4263 21.5025ZM23.8817 22.8611L23.5967 22.5804L23.5967 22.5804L23.8817 22.8611ZM22.5315 23.4263L22.5316 23.0263H22.5315V23.4263ZM3.58417 23.4263L3.58417 23.0263L3.58412 23.0263L3.58417 23.4263ZM2.23401 22.8611L1.94902 23.1418L1.94902 23.1418L2.23401 22.8611ZM1.68943 21.5025L2.08944 21.5086L2.08943 21.502L1.68943 21.5025ZM3.29617 17.036L3.04311 16.7262L3.01296 16.7508L2.98813 16.7808L3.29617 17.036ZM6.8608 14.8886L7.01642 15.2573L7.0267 15.2526L6.8608 14.8886ZM9.59933 13.3602L9.82201 13.6925L10.2015 13.4382L9.8993 13.0956L9.59933 13.3602ZM7.21575 7.58124L7.61506 7.55743L7.61479 7.55354L7.21575 7.58124ZM7.91301 3.41282L7.55582 3.23278L7.54987 3.24458L7.54471 3.25676L7.91301 3.41282ZM18.204 3.4103L18.5723 3.25444L18.567 3.24186L18.5609 3.22967L18.204 3.4103ZM18.9 7.57872L18.5009 7.551L18.5007 7.55472L18.9 7.57872ZM16.5164 13.3577L16.2163 13.0932L15.9143 13.4358L16.2938 13.69L16.5164 13.3577ZM22.8688 21.8638L22.584 21.5829L22.5837 21.5832L22.8688 21.8638ZM22.5303 22.0052L22.531 21.6052H22.5303V22.0052ZM23.0052 21.5303L22.6052 21.5264L22.6052 21.531L23.0052 21.5303ZM21.8141 18.0452L22.128 17.7974L22.0978 17.7591L22.0593 17.7293L21.8141 18.0452ZM18.6183 16.1695L18.4597 16.5367L18.462 16.5376L18.6183 16.1695ZM15.54 14.401L15.2653 14.6918L15.283 14.7085L15.3026 14.723L15.54 14.401ZM14.5812 13.4953L14.2709 13.2429L14.0365 13.531L14.3065 13.7861L14.5812 13.4953ZM15.4136 12.4722L15.1152 12.2059L15.1091 12.2127L15.1034 12.2198L15.4136 12.4722ZM17.4789 7.59008L17.0801 7.55934L17.0799 7.56139L17.4789 7.59008ZM16.9345 4.05324L17.3056 3.90398L17.2951 3.87788L17.281 3.8535L16.9345 4.05324ZM13.0579 2.11051L13.0104 2.50768L13.0578 2.51335L13.1053 2.50769L13.0579 2.11051ZM9.18122 4.05324L8.83462 3.85357L8.8206 3.87792L8.81011 3.90399L9.18122 4.05324ZM8.6368 7.58377L9.03575 7.55477L9.03563 7.55325L8.6368 7.58377ZM10.7046 12.4646L11.0149 12.2122L11.0091 12.205L11.003 12.1982L10.7046 12.4646ZM11.537 13.4878L11.8119 13.7784L12.0816 13.5233L11.8473 13.2353L11.537 13.4878ZM10.5783 14.3947L10.8157 14.7166L10.8354 14.7021L10.8532 14.6853L10.5783 14.3947ZM7.49996 16.1631L7.65642 16.5313L7.65841 16.5304L7.49996 16.1631ZM4.30291 18.0389L4.05787 17.7228L4.01789 17.7538L3.98688 17.7937L4.30291 18.0389ZM3.11175 21.524L3.51175 21.5278L3.51175 21.5235L3.11175 21.524ZM3.24817 21.8638L2.96187 22.1431L2.96303 22.1443L3.24817 21.8638ZM3.58417 22.0052L3.58277 22.4052H3.58417V22.0052ZM23.0714 16.7237C21.9621 15.8174 20.7289 15.0745 19.4092 14.5176L19.0981 15.2546C20.3475 15.7818 21.5151 16.4852 22.5652 17.3432L23.0714 16.7237ZM24.8263 21.503C24.8283 19.7779 24.2269 18.1065 23.1263 16.7782L22.5103 17.2887C23.4918 18.4732 24.0281 19.9637 24.0263 21.502L24.8263 21.503ZM24.1667 23.1418C24.5981 22.7038 24.8357 22.111 24.8262 21.4964L24.0263 21.5086C24.0325 21.909 23.8777 22.2951 23.5967 22.5804L24.1667 23.1418ZM22.5315 23.8263C23.1462 23.8264 23.7353 23.5798 24.1667 23.1418L23.5967 22.5804C23.3157 22.8657 22.932 23.0263 22.5316 23.0263L22.5315 23.8263ZM3.58417 23.8263H22.5315V23.0263H3.58417V23.8263ZM1.94902 23.1418C2.3804 23.5798 2.96947 23.8264 3.58422 23.8263L3.58412 23.0263C3.18369 23.0263 2.79998 22.8657 2.519 22.5804L1.94902 23.1418ZM1.28948 21.4964C1.28005 22.111 1.51765 22.7038 1.94902 23.1418L2.519 22.5804C2.23801 22.2951 2.08325 21.909 2.08939 21.5086L1.28948 21.4964ZM2.98813 16.7808C1.88834 18.1085 1.28743 19.7789 1.28943 21.503L2.08943 21.502C2.08765 19.9647 2.6235 18.4751 3.60421 17.2911L2.98813 16.7808ZM6.70525 14.5201C5.38561 15.0771 4.15241 15.82 3.04311 16.7262L3.54923 17.3458C4.59946 16.4878 5.76699 15.7845 7.01635 15.2571L6.70525 14.5201ZM9.37664 13.0279C8.52483 13.5988 7.62795 14.0993 6.6949 14.5246L7.0267 15.2526C7.99927 14.8093 8.93413 14.2875 9.82201 13.6925L9.37664 13.0279ZM6.81646 7.60506C6.9493 9.83245 7.82329 11.9514 9.29935 13.6248L9.8993 13.0956C8.54133 11.5561 7.73726 9.60663 7.61504 7.55743L6.81646 7.60506ZM7.54471 3.25676C6.96284 4.62996 6.71341 6.12114 6.81671 7.60895L7.61479 7.55354C7.52021 6.19137 7.74858 4.82612 8.28131 3.56888L7.54471 3.25676ZM13.0579 0.289453C11.4339 0.289453 10.2271 0.676086 9.33568 1.24844C8.4457 1.8199 7.89455 2.56079 7.55582 3.23278L8.2702 3.59287C8.558 3.0219 9.02116 2.40111 9.76792 1.92162C10.5133 1.44303 11.5656 1.08945 13.0579 1.08945V0.289453ZM18.5609 3.22967C18.2215 2.5592 17.6701 1.8191 16.7801 1.24805C15.8886 0.676092 14.6818 0.289453 13.0579 0.289453V1.08945C14.5501 1.08945 15.6025 1.44302 16.3481 1.92138C17.0951 2.40065 17.5586 3.02097 17.8471 3.59092L18.5609 3.22967ZM19.299 7.60643C19.4023 6.11881 19.1534 4.6278 18.5723 3.25444L17.8356 3.56615C18.3676 4.82365 18.5955 6.18888 18.5009 7.551L19.299 7.60643ZM16.8165 13.6221C18.2916 11.9483 19.1654 9.82976 19.2992 7.60271L18.5007 7.55472C18.3775 9.60383 17.5735 11.5531 16.2163 13.0932L16.8165 13.6221ZM19.4198 14.5222C18.4872 14.0964 17.5907 13.5958 16.739 13.0253L16.2938 13.69C17.1814 14.2846 18.1157 14.8062 19.0875 15.25L19.4198 14.5222ZM22.5837 21.5832C22.5698 21.5973 22.5508 21.6053 22.531 21.6052L22.5295 22.4052C22.7643 22.4057 22.9893 22.3116 23.1539 22.1443L22.5837 21.5832ZM22.6052 21.531C22.6053 21.5504 22.5976 21.5691 22.584 21.5829L23.1536 22.1446C23.3152 21.9808 23.4056 21.7597 23.4052 21.5296L22.6052 21.531ZM21.5001 18.2931C22.2266 19.2132 22.6166 20.3541 22.6052 21.5264L23.4052 21.5342C23.4183 20.1793 22.9676 18.8608 22.128 17.7974L21.5001 18.2931ZM18.462 16.5376C19.5719 17.0089 20.6162 17.6219 21.5688 18.3612L22.0593 17.7293C21.0522 16.9476 19.9481 16.2995 18.7746 15.8013L18.462 16.5376ZM15.3026 14.723C16.2826 15.4456 17.3418 16.0541 18.4597 16.5367L18.7768 15.8022C17.7147 15.3437 16.7084 14.7656 15.7773 14.0791L15.3026 14.723ZM14.3065 13.7861L15.2653 14.6918L15.8146 14.1103L14.8559 13.2046L14.3065 13.7861ZM15.1034 12.2198L14.2709 13.2429L14.8915 13.7478L15.7239 12.7246L15.1034 12.2198ZM17.0799 7.56139C16.956 9.28406 16.2651 10.9172 15.1152 12.2059L15.7121 12.7385C16.9797 11.318 17.7413 9.51774 17.8779 7.61878L17.0799 7.56139ZM16.5634 4.2025C16.9914 5.26683 17.1683 6.41555 17.0801 7.55934L17.8777 7.62083C17.9754 6.35437 17.7796 5.08245 17.3056 3.90398L16.5634 4.2025ZM13.1053 2.50769C14.5108 2.3399 15.881 3.02656 16.5879 4.25299L17.281 3.8535C16.4142 2.34959 14.734 1.50758 13.0104 1.71333L13.1053 2.50769ZM9.52782 4.25292C10.2345 3.02631 11.6048 2.33959 13.0104 2.50768L13.1053 1.71334C11.3816 1.50721 9.7012 2.34934 8.83462 3.85357L9.52782 4.25292ZM9.03563 7.55325C8.94826 6.41147 9.12506 5.26491 9.55233 4.20249L8.81011 3.90399C8.33699 5.08041 8.14121 6.35 8.23797 7.61429L9.03563 7.55325ZM11.003 12.1982C9.85265 10.91 9.16096 9.27729 9.03575 7.55477L8.23785 7.61277C8.37587 9.51143 9.13829 11.3111 10.4062 12.731L11.003 12.1982ZM11.8473 13.2353L11.0149 12.2122L10.3943 12.717L11.2267 13.7402L11.8473 13.2353ZM10.8532 14.6853L11.8119 13.7784L11.2621 13.1972L10.3034 14.1041L10.8532 14.6853ZM7.65841 16.5304C8.7765 16.048 9.83581 15.4395 10.8157 14.7166L10.3408 14.0728C9.40994 14.7595 8.40364 15.3376 7.34151 15.7959L7.65841 16.5304ZM4.54794 18.3551C5.50143 17.6161 6.5462 17.0031 7.65642 16.5313L7.3435 15.795C6.17001 16.2937 5.0657 16.9417 4.05787 17.7228L4.54794 18.3551ZM3.51175 21.5235C3.51036 20.3506 3.89995 19.2108 4.61893 18.2841L3.98688 17.7937C3.15884 18.8609 2.71014 20.1737 2.71175 21.5245L3.51175 21.5235ZM3.53447 21.5844C3.5197 21.5693 3.51153 21.5489 3.51173 21.5278L2.71177 21.5202C2.70955 21.7527 2.79947 21.9767 2.96187 22.1431L3.53447 21.5844ZM3.58557 21.6052C3.56591 21.6052 3.54709 21.5973 3.5333 21.5832L2.96303 22.1443C3.12652 22.3105 3.34965 22.4044 3.58277 22.4052L3.58557 21.6052ZM22.5303 21.6052H3.58417V22.4052H22.5303V21.6052Z" fill="#F77866"/>
</g>
</svg>
