<svg width="14" height="14" viewBox="0 0 14 14" fill="none" xmlns="http://www.w3.org/2000/svg">
<path d="M13.125 6.125H7.875V0.874979C7.875 0.391731 7.48327 0 7.00002 0C6.51678 0 6.12505 0.391731 6.12505 0.874979V6.12495H0.875076C0.391829 6.12495 0 6.51668 0 6.99993C0 7.48317 0.391829 7.87491 0.875076 7.87491H6.12505V13.1249C6.12505 13.6081 6.51678 13.9999 7.00002 13.9999C7.48327 13.9999 7.875 13.6081 7.875 13.1249V7.87491H13.125C13.6083 7.87491 14 7.48313 14 6.99993C14 6.51673 13.6083 6.125 13.125 6.125Z" fill="#F77866"/>
</svg>
