<svg width="6" height="12" viewBox="0 0 6 12" fill="none" xmlns="http://www.w3.org/2000/svg">
<path d="M5.64297 5.99988C5.64321 5.79048 5.57224 5.59004 5.44647 5.44488L1.58947 0.81648C1.42174 0.616952 1.1763 0.54394 0.950328 0.626349C0.724352 0.708758 0.554271 0.9333 0.507417 1.21108C0.460563 1.48887 0.54449 1.7751 0.725974 1.95648L4.09247 5.99988L0.679974 10.0931C0.517597 10.2879 0.454181 10.5719 0.513615 10.8381C0.57305 11.1043 0.746304 11.3122 0.968115 11.3835C1.18993 11.4548 1.4266 11.3787 1.58897 11.1839L5.44597 6.55548C5.57205 6.41028 5.64322 6.20957 5.64297 5.99988Z" fill="#F89C52"/>
</svg>
