<svg width="20" height="20" viewBox="0 0 20 20" fill="none" xmlns="http://www.w3.org/2000/svg">
<path d="M10 0C15.5228 0 20 4.47715 20 10C20 15.5228 15.5228 20 10 20C4.47715 20 0 15.5228 0 10C0 4.47715 4.47715 0 10 0Z" fill="#E6EAEE"/>
<path d="M8.67261 12.7527L14.1821 7.71573C14.2767 7.62607 14.3096 7.4981 14.268 7.38093C14.2264 7.26375 14.1169 7.17556 13.9814 7.15017C13.8459 7.12479 13.7055 7.16616 13.6141 7.25842L8.3987 12.0371L6.36155 10.2298C6.21054 10.1034 5.97353 10.1064 5.82669 10.2367C5.67985 10.3669 5.67644 10.5772 5.81899 10.7112L8.12019 12.7529C8.19219 12.8194 8.29157 12.857 8.39548 12.8571C8.50123 12.8568 8.60061 12.8192 8.67261 12.7527Z" fill="#FF6969" stroke="#FF6969" stroke-width="0.5" stroke-linecap="round" stroke-linejoin="round"/>
</svg>
