<svg width="16" height="20" viewBox="0 0 16 20" fill="none" xmlns="http://www.w3.org/2000/svg">
<path d="M11.5 7C11.2238 7 11 7.21419 11 7.47847V16.5215C11 16.7856 11.2238 17 11.5 17C11.7762 17 12 16.7856 12 16.5215V7.47847C12 7.21419 11.7762 7 11.5 7Z" fill="#727C8E"/>
<path d="M4.5 7C4.22383 7 4 7.21419 4 7.47847V16.5215C4 16.7856 4.22383 17 4.5 17C4.77617 17 5 16.7856 5 16.5215V7.47847C5 7.21419 4.77617 7 4.5 7Z" fill="#727C8E"/>
<path fill-rule="evenodd" clip-rule="evenodd" d="M1.31033 17.4941V5.95417C0.454836 5.72364 -0.0995129 4.88458 0.0149251 3.99338C0.129543 3.10236 0.877266 2.43583 1.76249 2.43564H4.1246V1.85017C4.1219 1.35782 4.31365 0.885046 4.65697 0.537236C5.00028 0.18961 5.46668 -0.00396361 5.95165 6.15414e-05H10.0484C10.5333 -0.00396361 10.9997 0.18961 11.343 0.537236C11.6863 0.885046 11.8781 1.35782 11.8754 1.85017V2.43564H14.2375C15.1227 2.43583 15.8705 3.10236 15.9851 3.99338C16.0995 4.88458 15.5452 5.72364 14.6897 5.95417V17.4941C14.6897 18.1762 14.4433 18.8167 14.013 19.2763C13.5848 19.7372 12.9886 19.9988 12.3645 19.9999H3.63549C3.01158 19.9988 2.41542 19.7372 1.98704 19.2763C1.55669 18.8167 1.31033 18.1762 1.31033 17.4941ZM3.63549 19.0632H12.3645C13.1533 19.0632 13.767 18.3752 13.767 17.4941V5.99534H2.23304V17.4941C2.23304 18.3752 2.84668 19.0632 3.63549 19.0632ZM5.04732 1.85017C5.04425 1.60628 5.13869 1.37154 5.30917 1.19937C5.47948 1.02721 5.71124 0.932616 5.95165 0.936824H10.0484C10.2888 0.932616 10.5205 1.02721 10.6908 1.19937C10.8613 1.37136 10.9557 1.60628 10.9527 1.85017V2.43564H5.04732V1.85017ZM14.2375 3.37241H1.76249C1.30384 3.37241 0.932052 3.74986 0.932052 4.21549C0.932052 4.68113 1.30384 5.05858 1.76249 5.05858H14.2375C14.6962 5.05858 15.0679 4.68113 15.0679 4.21549C15.0679 3.74986 14.6962 3.37241 14.2375 3.37241Z" fill="#727C8E"/>
<path d="M8.5 7C8.22383 7 8 7.21419 8 7.47847V16.5215C8 16.7856 8.22383 17 8.5 17C8.77617 17 9 16.7856 9 16.5215V7.47847C9 7.21419 8.77617 7 8.5 7Z" fill="#727C8E"/>
</svg>
