<svg width="38" height="22" viewBox="0 0 38 22" fill="none" xmlns="http://www.w3.org/2000/svg">
<path fill-rule="evenodd" clip-rule="evenodd" d="M8.58065 0H36.7742C37.4512 0 38 0.547169 38 1.22221V20.7778C38 21.4528 37.4512 22 36.7742 22H8.58065V21.3889C8.58065 21.0511 8.30656 20.7778 7.96775 20.7778C7.62902 20.7778 7.35486 21.0511 7.35486 21.3889V22H1.2258C0.548848 22 0 21.4528 0 20.7778V15.3981C0 15.0901 0.151926 14.7973 0.41466 14.6352C1.63623 13.8819 2.45159 12.5374 2.45159 11C2.45159 9.46254 1.63623 8.11815 0.41466 7.36481C0.151926 7.20274 0 6.90999 0 6.60192V1.22221C0 0.547169 0.548848 0 1.2258 0H7.35486V0.611107C7.35486 0.948851 7.62895 1.22221 7.96775 1.22221C8.30649 1.22221 8.58065 0.948925 8.58065 0.611107V0ZM7.96775 19.5556C8.30649 19.5556 8.58065 19.2823 8.58065 18.9445V17.7222C8.58065 17.3845 8.30656 17.1111 7.96775 17.1111C7.62902 17.1111 7.35486 17.3844 7.35486 17.7222V18.9445C7.35486 19.2822 7.62895 19.5556 7.96775 19.5556ZM8.58065 15.2777C8.58065 15.6156 8.30649 15.8889 7.96775 15.8889C7.62895 15.8889 7.35486 15.6155 7.35486 15.2777V14.0555C7.35486 13.7177 7.62902 13.4444 7.96775 13.4444C8.30656 13.4444 8.58065 13.7178 8.58065 14.0555V15.2777ZM7.96775 12.2222C8.30649 12.2222 8.58065 11.9489 8.58065 11.6111V10.3889C8.58065 10.0511 8.30656 9.77779 7.96775 9.77779C7.62902 9.77779 7.35486 10.0511 7.35486 10.3889V11.6111C7.35486 11.9489 7.62895 12.2222 7.96775 12.2222ZM8.58065 7.94447C8.58065 8.28228 8.30649 8.55557 7.96775 8.55557C7.62895 8.55557 7.35486 8.28221 7.35486 7.94447V6.72225C7.35486 6.38443 7.62902 6.11114 7.96775 6.11114C8.30656 6.11114 8.58065 6.38451 8.58065 6.72225V7.94447ZM7.96775 4.88886C8.30649 4.88886 8.58065 4.61557 8.58065 4.27775V3.05553C8.58065 2.71779 8.30656 2.44443 7.96775 2.44443C7.62902 2.44443 7.35486 2.71772 7.35486 3.05553V4.27775C7.35486 4.61549 7.62895 4.88886 7.96775 4.88886Z" fill="#F77866"/>
<path d="M36.3864 21H10.6136C10.2747 21 10 20.7342 10 20.4063V2.59375C10 2.26581 10.2747 2 10.6136 2H36.3864C36.7253 2 37 2.26581 37 2.59375V20.4063C37 20.7342 36.7253 21 36.3864 21Z" fill="#FFA69A"/>
<path d="M23 14.044L19.7525 15.8688C19.0368 16.2709 18.1387 15.6869 18.3448 14.9534L19.2803 11.6251L16.3378 9.42454C15.6893 8.93955 16.0324 7.99455 16.8755 7.94342L20.7011 7.71125L22.13 4.52641C22.4449 3.82453 23.5551 3.82453 23.87 4.52641L25.2989 7.71125L29.1245 7.94342C29.9676 7.99462 30.3107 8.93961 29.6622 9.42454L26.7197 11.6251L27.6552 14.9534C27.8613 15.6869 26.9632 16.271 26.2475 15.8688L23 14.044Z" fill="white"/>
<path d="M27.5508 13.5452C23.3816 13.3267 19.8468 11.1148 18.2315 8L16.8991 8.0774C16.0332 8.12775 15.6809 9.05703 16.3469 9.53389L19.3687 11.6978L18.408 14.9708C18.1963 15.6921 19.1186 16.2664 19.8536 15.871L23.1887 14.0765L26.5236 15.871C27.2586 16.2664 28.1809 15.6921 27.9692 14.9708L27.5508 13.5452Z" fill="#FFD9D4"/>
</svg>
