<svg width="73" height="73" viewBox="0 0 73 73" fill="none" xmlns="http://www.w3.org/2000/svg">
<g filter="url(#filter0_d)">
<path d="M36.397 59.397C50.7564 59.397 62.397 47.7564 62.397 33.397C62.397 19.0376 50.7564 7.39697 36.397 7.39697C22.0376 7.39697 10.397 19.0376 10.397 33.397C10.397 47.7564 22.0376 59.397 36.397 59.397Z" fill="url(#paint0_linear)"/>
</g>
<rect x="10.397" y="7.39697" width="52" height="52" rx="20" fill="url(#paint1_linear)"/>
<path d="M46.4106 46.1672L40.4558 31.085L32.3715 31.0806L26.4106 46.1836L29.8605 46.5759L29.3613 47.7811L43.5368 47.7679L42.9608 46.5598L46.4106 46.1672Z" fill="url(#paint2_linear)"/>
<path d="M39.2266 18.397L36.4572 22.9775V22.99L33.6964 18.413L28.4612 19.8533L30.2453 24.6959L31.5832 25.4811L32.5431 30.0772L40.3781 30.0805L41.3395 25.4642L42.6774 24.6792L44.4612 19.8364L39.2266 18.397Z" fill="white"/>
<defs>
<filter id="filter0_d" x="0.396973" y="0.396973" width="72" height="72" filterUnits="userSpaceOnUse" color-interpolation-filters="sRGB">
<feFlood flood-opacity="0" result="BackgroundImageFix"/>
<feColorMatrix in="SourceAlpha" type="matrix" values="0 0 0 0 0 0 0 0 0 0 0 0 0 0 0 0 0 0 127 0"/>
<feOffset dy="3"/>
<feGaussianBlur stdDeviation="5"/>
<feColorMatrix type="matrix" values="0 0 0 0 0.27451 0 0 0 0 0.819608 0 0 0 0 0.556863 0 0 0 0.296137 0"/>
<feBlend mode="normal" in2="BackgroundImageFix" result="effect1_dropShadow"/>
<feBlend mode="normal" in="SourceGraphic" in2="effect1_dropShadow" result="shape"/>
</filter>
<linearGradient id="paint0_linear" x1="11.0201" y1="8.64317" x2="11.0201" y2="59.397" gradientUnits="userSpaceOnUse">
<stop stop-color="#8AF0E3"/>
<stop offset="1" stop-color="#54D094"/>
</linearGradient>
<linearGradient id="paint1_linear" x1="10.397" y1="7.39697" x2="10.397" y2="59.397" gradientUnits="userSpaceOnUse">
<stop stop-color="#A2F0E6"/>
<stop offset="1" stop-color="#44D18C"/>
</linearGradient>
<linearGradient id="paint2_linear" x1="28.7709" y1="35.0224" x2="28.7709" y2="47.7811" gradientUnits="userSpaceOnUse">
<stop stop-color="white"/>
<stop offset="1" stop-color="white" stop-opacity="0.801273"/>
</linearGradient>
</defs>
</svg>
