<svg width="414" height="414" viewBox="0 0 414 414" fill="none" xmlns="http://www.w3.org/2000/svg">
<path opacity="0.0955404" fill-rule="evenodd" clip-rule="evenodd" d="M207 414C321.323 414 414 321.323 414 207C414 92.677 321.323 0 207 0C92.677 0 0 92.677 0 207C0 321.323 92.677 414 207 414Z" fill="#F7B733"/>
<path fill-rule="evenodd" clip-rule="evenodd" d="M273.1 109.287H253.755V121.006H266.757L295.961 165.952V210.136H290.795C288.117 200.471 279.345 193.783 269.346 193.783C259.346 193.783 250.574 200.471 247.896 210.136H242.073V97.5669H126.573V182.067H230.391V210.136H186.648C183.97 200.471 175.197 193.783 165.198 193.783C155.199 193.783 146.427 200.471 143.749 210.136H138.255V193.781H126.573V221.85H143.775C146.439 231.513 155.204 238.204 165.198 238.204C175.192 238.204 183.957 231.513 186.621 221.85H247.922C250.587 231.513 259.352 238.204 269.346 238.204C279.339 238.204 288.104 231.513 290.769 221.85H307.643V162.462L273.1 109.287ZM165.199 226.485C159.432 226.436 154.791 221.715 154.823 215.929C154.855 210.142 159.548 205.473 165.316 205.489C171.084 205.505 175.751 210.2 175.751 215.987C175.724 221.808 171.002 226.506 165.199 226.485ZM138.255 170.347H178.482V145.674H138.255V170.347ZM178.482 133.954H138.255V109.287H178.482V133.954ZM190.164 170.353H230.391V145.674H190.164V170.353ZM230.391 133.96H190.164V109.287H230.391V133.96ZM258.971 215.925C258.936 221.711 263.576 226.435 269.344 226.485C275.145 226.507 279.868 221.812 279.899 215.993C279.902 210.206 275.236 205.508 269.468 205.489C263.7 205.47 259.005 210.138 258.971 215.925Z" fill="#F77866"/>
<rect x="119.541" y="94.051" width="126.573" height="81.7452" fill="white"/>
<g opacity="0.5">
<rect x="114.827" y="58.1024" width="0.585401" height="3.31727" fill="#47E6B1"/>
<path d="M116.778 59.4683V60.0537H113.461V59.4683H116.778Z" fill="#47E6B1"/>
</g>
<g opacity="0.5">
<rect x="137.745" y="139.791" width="0.585401" height="3.31727" fill="#47E6B1"/>
<path d="M139.695 141.157V141.743L136.378 141.743V141.157H139.695Z" fill="#47E6B1"/>
</g>
<g opacity="0.5">
<rect x="105.174" y="95.8088" width="0.616212" height="3.49187" fill="#47E6B1"/>
<path d="M107.229 97.2467V97.863H103.737V97.2467H107.229Z" fill="#47E6B1"/>
</g>
<g opacity="0.5">
<rect x="220.321" y="32.5223" width="0.616212" height="3.49187" fill="#47E6B1"/>
<path d="M222.375 33.9601V34.5763H218.883V33.9601L222.375 33.9601Z" fill="#47E6B1"/>
</g>
<g opacity="0.5">
<rect x="109.515" y="42.3546" width="0.585401" height="3.31727" fill="#47E6B1"/>
<path d="M111.466 43.7205V44.3059H108.148V43.7205H111.466Z" fill="#47E6B1"/>
</g>
<path opacity="0.5" d="M122.746 126.604C122.304 126.41 122.077 125.916 122.217 125.455C122.228 125.421 122.235 125.385 122.238 125.35V125.35C122.271 125.132 122.146 124.921 121.939 124.844C121.733 124.768 121.501 124.846 121.383 125.033V125.033C121.362 125.062 121.344 125.093 121.33 125.126C121.136 125.568 120.642 125.796 120.181 125.655C120.147 125.644 120.111 125.637 120.076 125.634V125.634C119.858 125.602 119.647 125.727 119.57 125.933C119.494 126.14 119.572 126.372 119.759 126.489V126.489C119.788 126.511 119.819 126.529 119.852 126.543C120.294 126.736 120.522 127.23 120.381 127.692C120.37 127.726 120.363 127.761 120.36 127.797V127.797C120.328 128.015 120.453 128.226 120.659 128.302C120.866 128.379 121.098 128.3 121.215 128.114V128.114C121.237 128.085 121.255 128.054 121.269 128.02C121.462 127.578 121.956 127.351 122.418 127.491C122.452 127.502 122.487 127.509 122.523 127.512V127.512C122.741 127.545 122.952 127.42 123.028 127.213C123.105 127.007 123.026 126.775 122.84 126.657V126.657C122.811 126.636 122.78 126.618 122.746 126.604Z" fill="#4D8AF0"/>
<path opacity="0.5" d="M120.107 161.762C119.665 161.569 119.438 161.075 119.578 160.613C119.589 160.579 119.596 160.544 119.599 160.509V160.509C119.632 160.291 119.507 160.08 119.3 160.004C119.094 159.927 118.862 160.006 118.744 160.192V160.192C118.723 160.221 118.705 160.252 118.69 160.285C118.498 160.727 118.005 160.955 117.544 160.816C117.51 160.805 117.475 160.798 117.439 160.795V160.795C117.221 160.763 117.01 160.887 116.934 161.094C116.857 161.3 116.936 161.532 117.122 161.65V161.65C117.151 161.671 117.182 161.689 117.215 161.703C117.658 161.896 117.885 162.39 117.744 162.852C117.733 162.886 117.726 162.921 117.723 162.956V162.956C117.691 163.174 117.816 163.385 118.022 163.461C118.229 163.538 118.461 163.459 118.579 163.273V163.273C118.6 163.244 118.618 163.213 118.632 163.18C118.825 162.738 119.319 162.51 119.781 162.651C119.815 162.662 119.85 162.669 119.886 162.672V162.672C120.104 162.704 120.315 162.58 120.391 162.373C120.468 162.167 120.389 161.935 120.203 161.817V161.817C120.173 161.795 120.141 161.776 120.107 161.762V161.762Z" fill="#4D8AF0"/>
<path opacity="0.5" d="M240.528 82.6533C240.085 82.4603 239.858 81.9666 239.999 81.5052C240.01 81.4711 240.017 81.436 240.02 81.4003V81.4003C240.052 81.1825 239.927 80.9719 239.721 80.8953C239.514 80.8188 239.282 80.8974 239.164 81.0836V81.0836C239.143 81.1125 239.125 81.1438 239.111 81.1768C238.919 81.6187 238.426 81.8469 237.964 81.7078C237.93 81.6968 237.895 81.6898 237.859 81.6868V81.6868C237.641 81.6546 237.43 81.7793 237.354 81.9857C237.277 82.1922 237.356 82.4241 237.542 82.5416V82.5416C237.571 82.5629 237.602 82.5809 237.636 82.5951C238.078 82.7881 238.305 83.2819 238.165 83.7433C238.154 83.7773 238.147 83.8125 238.144 83.8481V83.8481C238.111 84.0659 238.236 84.2766 238.443 84.3531C238.649 84.4296 238.881 84.3511 238.999 84.1649V84.1649C239.02 84.136 239.038 84.1047 239.052 84.0717C239.246 83.6295 239.74 83.4022 240.201 83.543C240.235 83.554 240.271 83.561 240.306 83.564V83.564C240.524 83.5962 240.735 83.4715 240.812 83.2651C240.888 83.0586 240.81 82.8267 240.623 82.7092V82.7092C240.594 82.6869 240.562 82.6681 240.528 82.6533V82.6533Z" fill="#4D8AF0"/>
<path opacity="0.5" d="M234.377 120.451C233.935 120.258 233.707 119.763 233.848 119.302C233.859 119.268 233.866 119.232 233.869 119.197V119.197C233.901 118.979 233.777 118.768 233.57 118.692C233.363 118.615 233.131 118.694 233.014 118.88V118.88C232.992 118.909 232.974 118.94 232.96 118.973C232.767 119.416 232.273 119.643 231.811 119.502C231.777 119.491 231.742 119.484 231.706 119.481V119.481C231.488 119.449 231.278 119.574 231.201 119.78C231.125 119.987 231.203 120.219 231.389 120.336V120.336C231.418 120.358 231.45 120.376 231.483 120.39C231.925 120.583 232.153 121.077 232.012 121.539C232.001 121.573 231.994 121.608 231.991 121.644V121.644C231.958 121.862 232.083 122.073 232.29 122.149C232.496 122.226 232.728 122.147 232.846 121.961V121.961C232.867 121.932 232.885 121.901 232.9 121.868C233.093 121.425 233.587 121.198 234.049 121.339C234.083 121.35 234.118 121.357 234.153 121.36V121.36C234.371 121.392 234.582 121.267 234.659 121.06C234.735 120.854 234.657 120.622 234.47 120.504V120.504C234.442 120.483 234.41 120.465 234.377 120.451V120.451Z" fill="#4D8AF0"/>
<path opacity="0.5" d="M238.772 45.7373C238.33 45.5441 238.102 45.0501 238.243 44.5883C238.254 44.5543 238.261 44.5191 238.264 44.4835V44.4835C238.296 44.2655 238.172 44.0547 237.965 43.9781C237.758 43.9016 237.526 43.9801 237.409 44.1665V44.1665C237.387 44.1954 237.369 44.2267 237.355 44.2597C237.162 44.7022 236.668 44.9297 236.206 44.7888C236.172 44.7778 236.137 44.7707 236.101 44.7678V44.7678C235.883 44.7355 235.673 44.8603 235.596 45.0669C235.519 45.2735 235.598 45.5055 235.784 45.6231V45.6231C235.813 45.6445 235.845 45.6625 235.878 45.6767C236.32 45.8699 236.548 46.3639 236.407 46.8257C236.396 46.8597 236.389 46.8949 236.386 46.9305V46.9305C236.353 47.1485 236.478 47.3593 236.685 47.4359C236.891 47.5124 237.123 47.4338 237.241 47.2475V47.2475C237.262 47.2186 237.28 47.1873 237.295 47.1543C237.488 46.7118 237.982 46.4843 238.444 46.6252C238.478 46.6362 238.513 46.6433 238.548 46.6462V46.6462C238.766 46.6785 238.977 46.5537 239.054 46.3471C239.13 46.1405 239.052 45.9085 238.865 45.7909V45.7909C238.836 45.7695 238.805 45.7515 238.772 45.7373Z" fill="#4D8AF0"/>
<path opacity="0.5" d="M251.957 143.304C251.514 143.111 251.287 142.617 251.428 142.155C251.439 142.121 251.446 142.086 251.449 142.05V142.05C251.481 141.832 251.356 141.622 251.15 141.545C250.943 141.468 250.711 141.547 250.594 141.733V141.733C250.572 141.762 250.554 141.794 250.54 141.827C250.347 142.269 249.853 142.497 249.391 142.356C249.357 142.345 249.322 142.338 249.286 142.335V142.335C249.068 142.302 248.857 142.427 248.781 142.634C248.704 142.84 248.783 143.072 248.969 143.19V143.19C248.998 143.211 249.029 143.229 249.062 143.244C249.505 143.437 249.732 143.931 249.591 144.393C249.58 144.427 249.573 144.462 249.57 144.497V144.497C249.538 144.715 249.663 144.926 249.87 145.003C250.076 145.079 250.308 145.001 250.426 144.814V144.814C250.447 144.785 250.465 144.754 250.479 144.721C250.673 144.279 251.167 144.051 251.628 144.192C251.662 144.203 251.698 144.21 251.733 144.213V144.213C251.951 144.245 252.162 144.121 252.239 143.914C252.315 143.707 252.237 143.475 252.05 143.358V143.358C252.021 143.336 251.99 143.318 251.957 143.304Z" fill="#4D8AF0"/>
<path opacity="0.5" d="M90.9745 84.3821C91.7026 84.3821 92.2929 83.7918 92.2929 83.0636C92.2929 82.3355 91.7026 81.7452 90.9745 81.7452C90.2463 81.7452 89.656 82.3355 89.656 83.0636C89.656 83.7918 90.2463 84.3821 90.9745 84.3821Z" fill="#F55F44"/>
<path opacity="0.5" d="M238.643 62.4076C239.371 62.4076 239.962 61.8173 239.962 61.0892C239.962 60.361 239.371 59.7707 238.643 59.7707C237.915 59.7707 237.325 60.361 237.325 61.0892C237.325 61.8173 237.915 62.4076 238.643 62.4076Z" fill="#F55F44"/>
<path opacity="0.5" d="M178.433 112.51C179.404 112.51 180.191 111.722 180.191 110.752C180.191 109.781 179.404 108.994 178.433 108.994C177.462 108.994 176.675 109.781 176.675 110.752C176.675 111.722 177.462 112.51 178.433 112.51Z" fill="#F55F44"/>
<path opacity="0.5" d="M178.433 112.51C179.404 112.51 180.191 111.722 180.191 110.752C180.191 109.781 179.404 108.994 178.433 108.994C177.462 108.994 176.675 109.781 176.675 110.752C176.675 111.722 177.462 112.51 178.433 112.51Z" fill="#F55F44"/>
<path opacity="0.5" d="M255.344 101.962C256.072 101.962 256.662 101.371 256.662 100.643C256.662 99.9151 256.072 99.3248 255.344 99.3248C254.616 99.3248 254.026 99.9151 254.026 100.643C254.026 101.371 254.616 101.962 255.344 101.962Z" fill="#F55F44"/>
<path opacity="0.5" d="M148.548 43.0701C149.519 43.0701 150.306 42.283 150.306 41.3121C150.306 40.3412 149.519 39.5541 148.548 39.5541C147.577 39.5541 146.79 40.3412 146.79 41.3121C146.79 42.283 147.577 43.0701 148.548 43.0701Z" fill="#47E6B1"/>
<path opacity="0.5" d="M232.49 156.459C233.219 156.459 233.809 155.868 233.809 155.14C233.809 154.412 233.219 153.822 232.49 153.822C231.762 153.822 231.172 154.412 231.172 155.14C231.172 155.868 231.762 156.459 232.49 156.459Z" fill="#F55F44"/>
<path d="M150.549 108.115C149.76 110.665 150.95 113.68 153.261 115.022C154.231 115.584 155.348 115.867 156.288 116.477C158.33 117.801 159.136 120.336 159.799 122.669C160.561 125.35 161.324 128.186 160.627 130.884C160.182 132.605 159.17 134.126 158.594 135.809C158.113 137.218 157.946 138.715 158.103 140.196C158.188 140.981 158.384 141.791 158.925 142.377C159.707 143.214 160.966 143.34 162.096 143.541C166.944 144.454 171.058 147.623 173.159 152.064" stroke="url(#paint0_linear)" stroke-width="2"/>
<path d="M150.549 108.115C149.76 110.665 150.95 113.68 153.261 115.022C154.231 115.584 155.348 115.867 156.288 116.477C158.33 117.801 159.136 120.336 159.799 122.669C160.561 125.35 161.324 128.186 160.627 130.884C160.182 132.605 159.17 134.126 158.594 135.809C158.113 137.218 157.946 138.715 158.103 140.196C158.188 140.981 158.384 141.791 158.925 142.377C159.707 143.214 160.966 143.34 162.096 143.541C166.944 144.454 171.058 147.623 173.159 152.064" stroke="#535461" stroke-width="2"/>
<path d="M180.988 88.7771C178.963 91.4471 176.86 94.3181 176.687 97.601C176.422 102.643 180.688 106.768 182.593 111.485C184.261 115.684 184.049 120.344 182.007 124.392C181.078 126.209 179.752 128.014 179.923 130.026C180.021 131.253 180.671 132.37 181.194 133.5C183.798 139.239 183.351 145.808 179.992 151.185" stroke="url(#paint1_linear)" stroke-width="2"/>
<path d="M180.99 88.7771C178.967 91.457 176.864 94.3201 176.687 97.601C176.422 102.643 180.688 106.768 182.593 111.485C184.261 115.684 184.049 120.344 182.007 124.392C181.078 126.209 179.752 128.014 179.923 130.026C180.021 131.253 180.671 132.37 181.194 133.5C183.798 139.239 183.351 145.808 179.992 151.185" stroke="#535461" stroke-width="2"/>
<path d="M207.333 113.389L208.224 121.035C208.341 122.051 208.442 123.159 207.924 124.029C207.434 124.85 206.512 125.241 205.796 125.848C203.444 127.844 203.658 131.658 204.469 134.72C205.28 137.782 206.448 141.071 205.32 144.017C204.854 145.233 204.031 146.257 203.425 147.399C202.384 149.35 201.972 151.603 202.25 153.822" stroke="url(#paint2_linear)" stroke-width="2"/>
<path d="M208.212 113.389L209.103 121.035C209.221 122.051 209.321 123.159 208.804 124.029C208.313 124.85 207.392 125.241 206.675 125.848C204.323 127.844 204.537 131.658 205.348 134.72C206.16 137.782 207.327 141.071 206.199 144.017C205.733 145.233 204.911 146.257 204.304 147.399C203.264 149.35 202.851 151.603 203.129 153.822" stroke="#535461" stroke-width="2"/>
<g opacity="0.7">
<path d="M231.911 81.8225C231.908 74.6616 228.431 67.9348 222.56 63.7269C216.688 59.5191 209.13 58.3384 202.228 60.551C202.415 59.2941 202.512 58.0257 202.517 56.7553C202.536 44.7036 192.873 34.8051 180.668 34.3728C168.463 33.9405 158.106 43.1299 157.249 55.1519C150.345 52.9345 142.783 54.1131 136.908 58.322C131.033 62.5309 127.555 69.2612 127.554 76.4253C127.554 87.653 135.938 103.608 146.847 106.435L148.545 107.392L147.623 110.51H153.085L151.899 107.388L153.59 106.435C162.025 104.25 168.942 94.2222 171.651 84.6038C173.134 85.5778 174.766 86.3095 176.486 86.7706L178.184 87.7279L177.276 90.8381H182.738L181.552 87.716L183.243 86.7627C184.496 86.43 185.702 85.9464 186.836 85.3228C188.295 96.1131 196.058 109.287 205.881 111.83L207.58 112.787L206.657 115.905H212.119L210.929 112.783L212.62 111.83C223.537 109.003 231.911 93.0423 231.911 81.8225Z" fill="url(#paint3_linear)"/>
</g>
<path d="M154.701 109.873H149.427L150.351 106.357H153.514L154.701 109.873V109.873Z" fill="#F77866"/>
<path d="M173.157 76.9651C173.157 88.8891 163.319 106.357 151.184 106.357C139.049 106.357 129.21 88.8872 129.21 76.9651C129.21 65.0416 139.049 55.3758 151.185 55.3758C163.321 55.3758 173.159 65.0416 173.159 76.9651H173.157Z" fill="#F77866"/>
<path d="M152.807 107.236H149.563L147.669 106.357H154.701L152.807 107.236V107.236Z" fill="#535461"/>
<path opacity="0.1" d="M143.274 59.7707C143.274 59.7707 134.045 64.7516 132.726 74.7134Z" fill="white"/>
<path d="M182.828 91.414H177.554L178.478 87.8981H181.641L182.828 91.414V91.414Z" fill="#F89C52"/>
<path d="M202.164 57.6275C202.164 69.5516 192.325 87.0191 180.19 87.0191C168.055 87.0191 158.217 69.5496 158.217 57.6275C158.217 45.7041 168.055 36.0382 180.191 36.0382C192.327 36.0382 202.166 45.7041 202.166 57.6275H202.164Z" fill="#F89C52"/>
<path d="M181.813 87.8981H178.569L176.675 87.0191H183.707L181.813 87.8981V87.8981Z" fill="#535461"/>
<path opacity="0.1" d="M172.28 40.4331C172.28 40.4331 163.051 45.414 161.732 55.3758Z" fill="white"/>
<path d="M210.956 115.146H205.682L206.606 111.631H209.769L210.956 115.146V115.146Z" fill="#F7B733"/>
<path d="M230.293 82.239C230.293 94.1631 220.454 111.631 208.32 111.631C196.185 111.631 186.344 94.1631 186.344 82.239C186.344 70.3156 196.182 60.6497 208.319 60.6497C220.455 60.6497 230.293 70.3156 230.293 82.239V82.239Z" fill="#F7B733"/>
<path d="M209.941 111.631H206.696L204.802 110.752H211.834L209.941 111.631V111.631Z" fill="#535461"/>
<path opacity="0.1" d="M200.408 65.0446C200.408 65.0446 191.179 70.0254 189.86 79.9872Z" fill="white"/>
<g opacity="0.5">
<path fill-rule="evenodd" clip-rule="evenodd" d="M192.534 118.783C191.257 117.51 189.396 117.004 187.292 117.357C185.325 117.687 183.355 118.751 181.748 120.345C181.283 120.811 180.892 121.344 180.588 121.927C180.293 121.325 179.905 120.771 179.438 120.287C177.86 118.664 175.908 117.57 173.939 117.211C171.843 116.813 169.974 117.297 168.673 118.548C167.373 119.799 166.84 121.642 167.165 123.738C167.469 125.699 168.507 127.673 170.088 129.293C173.41 132.702 180.039 131.371 180.32 131.311L180.402 131.293L180.657 131.351C180.937 131.415 187.543 132.859 190.923 129.508C192.526 127.914 193.602 125.96 193.942 124.003C194.313 121.909 193.81 120.058 192.534 118.783ZM179.206 129.343C177.603 129.558 173.61 129.849 171.628 127.815C170.354 126.506 169.521 124.944 169.282 123.411C169.066 122.017 169.378 120.821 170.168 120.068C170.476 119.774 170.844 119.55 171.248 119.411C171.993 119.171 172.79 119.131 173.556 119.295C175.086 119.58 176.633 120.457 177.907 121.766C179.889 123.786 179.472 127.755 179.206 129.341V129.343ZM189.428 128.004C190.726 126.719 191.586 125.169 191.85 123.643V123.641C192.091 122.246 191.798 121.055 191.025 120.284C190.722 119.984 190.357 119.752 189.955 119.606C189.213 119.354 188.418 119.3 187.649 119.451C186.114 119.706 184.553 120.556 183.255 121.842C181.237 123.842 181.586 127.805 181.824 129.399C183.417 129.644 187.41 129.996 189.428 128.004Z" fill="url(#paint4_linear)"/>
</g>
<path fill-rule="evenodd" clip-rule="evenodd" d="M179.88 130.674L180.521 130.541L180.665 129.911C180.73 129.643 182.231 123.309 179.006 120.012C177.473 118.443 175.578 117.385 173.673 117.033C171.637 116.656 169.822 117.115 168.561 118.326C167.3 119.536 166.78 121.319 167.097 123.347C167.402 125.244 168.411 127.154 169.944 128.721C173.171 132.018 179.608 130.731 179.88 130.674ZM170.011 119.8C170.31 119.515 170.668 119.298 171.06 119.164C171.784 118.932 172.557 118.894 173.301 119.053C174.789 119.327 176.289 120.177 177.528 121.442C179.453 123.409 179.047 127.24 178.788 128.773C177.233 128.98 173.355 129.262 171.43 127.295C170.192 126.028 169.382 124.515 169.151 123.035C168.941 121.683 169.246 120.535 170.011 119.8Z" fill="#F77866"/>
<path fill-rule="evenodd" clip-rule="evenodd" d="M179.655 130.724L179.796 131.36L180.43 131.494C180.695 131.555 187.08 132.961 190.347 129.701C191.901 128.15 192.938 126.248 193.266 124.345C193.616 122.318 193.124 120.519 191.895 119.279C190.667 118.039 188.859 117.546 186.836 117.891C184.933 118.213 183.031 119.244 181.476 120.794C178.21 124.055 179.594 130.452 179.655 130.724ZM187.184 119.915C187.926 119.769 188.694 119.821 189.41 120.067C189.797 120.206 190.149 120.428 190.442 120.715C191.191 121.467 191.474 122.628 191.242 123.984C190.985 125.48 190.155 126.987 188.9 128.24C186.951 130.185 183.095 129.834 181.551 129.599C181.314 128.051 180.982 124.193 182.934 122.245C184.19 120.995 185.698 120.166 187.184 119.915Z" fill="#F77866"/>
<g opacity="0.5">
<path d="M210.842 129.38H149.511V141.478H152.697V176.494H207.655V141.478H210.842V129.38V129.38Z" fill="url(#paint5_linear)"/>
</g>
<rect x="153.822" y="132.726" width="53.6178" height="43.0701" fill="#535461"/>
<rect x="174.917" y="140.637" width="9.66879" height="35.1592" fill="#F77866"/>
<rect opacity="0.1" x="153.822" y="130.089" width="53.6178" height="10.5478" fill="black"/>
<rect x="150.306" y="130.089" width="59.7707" height="10.5478" fill="#535461"/>
<rect x="174.917" y="130.089" width="9.66879" height="10.5478" fill="#F77866"/>
<path d="M117.892 298.522C117.892 297.114 117.364 295.97 116.308 295.09C115.296 294.21 113.998 293.418 112.414 292.714C110.874 291.966 109.18 291.218 107.332 290.47C105.528 289.678 103.834 288.732 102.25 287.632C100.71 286.488 99.412 285.08 98.356 283.408C97.344 281.736 96.838 279.602 96.838 277.006C96.838 274.762 97.212 272.826 97.96 271.198C98.708 269.526 99.764 268.14 101.128 267.04C102.536 265.94 104.186 265.126 106.078 264.598C107.97 264.07 110.082 263.806 112.414 263.806C115.098 263.806 117.628 264.048 120.004 264.532C122.38 264.972 124.338 265.632 125.878 266.512L123.04 274.102C122.072 273.486 120.62 272.936 118.684 272.452C116.748 271.924 114.658 271.66 112.414 271.66C110.302 271.66 108.674 272.078 107.53 272.914C106.43 273.75 105.88 274.872 105.88 276.28C105.88 277.6 106.386 278.7 107.398 279.58C108.454 280.46 109.752 281.274 111.292 282.022C112.876 282.77 114.57 283.54 116.374 284.332C118.222 285.124 119.916 286.092 121.456 287.236C123.04 288.336 124.338 289.722 125.35 291.394C126.406 293.022 126.934 295.068 126.934 297.532C126.934 299.996 126.516 302.13 125.68 303.934C124.888 305.694 123.744 307.168 122.248 308.356C120.796 309.544 119.014 310.424 116.902 310.996C114.834 311.568 112.546 311.854 110.038 311.854C106.738 311.854 103.834 311.546 101.326 310.93C98.818 310.314 96.97 309.698 95.782 309.082L98.686 301.36C99.17 301.624 99.786 301.91 100.534 302.218C101.326 302.526 102.206 302.812 103.174 303.076C104.142 303.34 105.154 303.56 106.21 303.736C107.31 303.912 108.432 304 109.576 304C112.26 304 114.306 303.56 115.714 302.68C117.166 301.756 117.892 300.37 117.892 298.522ZM132.562 279.844C134.322 279.052 136.412 278.436 138.832 277.996C141.252 277.512 143.782 277.27 146.422 277.27C148.71 277.27 150.624 277.556 152.164 278.128C153.704 278.656 154.914 279.426 155.794 280.438C156.718 281.45 157.356 282.66 157.708 284.068C158.104 285.476 158.302 287.06 158.302 288.82C158.302 290.756 158.236 292.714 158.104 294.694C157.972 296.63 157.884 298.544 157.84 300.436C157.84 302.328 157.906 304.176 158.038 305.98C158.17 307.74 158.5 309.412 159.028 310.996H152.032L150.646 306.442H150.316C149.436 307.806 148.204 308.994 146.62 310.006C145.08 310.974 143.078 311.458 140.614 311.458C139.074 311.458 137.688 311.238 136.456 310.798C135.224 310.314 134.168 309.654 133.288 308.818C132.408 307.938 131.726 306.926 131.242 305.782C130.758 304.594 130.516 303.274 130.516 301.822C130.516 299.798 130.956 298.104 131.836 296.74C132.76 295.332 134.058 294.21 135.73 293.374C137.446 292.494 139.47 291.9 141.802 291.592C144.178 291.24 146.818 291.13 149.722 291.262C150.03 288.798 149.854 287.038 149.194 285.982C148.534 284.882 147.06 284.332 144.772 284.332C143.056 284.332 141.23 284.508 139.294 284.86C137.402 285.212 135.84 285.674 134.608 286.246L132.562 279.844ZM143.452 304.396C145.168 304.396 146.532 304.022 147.544 303.274C148.556 302.482 149.304 301.646 149.788 300.766V296.476C148.424 296.344 147.104 296.322 145.828 296.41C144.596 296.498 143.496 296.696 142.528 297.004C141.56 297.312 140.79 297.752 140.218 298.324C139.646 298.896 139.36 299.622 139.36 300.502C139.36 301.734 139.712 302.702 140.416 303.406C141.164 304.066 142.176 304.396 143.452 304.396ZM185.698 310.93V292.186C185.698 289.502 185.302 287.566 184.51 286.378C183.762 285.19 182.464 284.596 180.616 284.596C178.988 284.596 177.602 285.08 176.458 286.048C175.358 286.972 174.566 288.138 174.082 289.546V310.93H165.502V277.93H172.3L173.29 282.286H173.554C174.566 280.878 175.908 279.646 177.58 278.59C179.252 277.534 181.408 277.006 184.048 277.006C185.676 277.006 187.128 277.226 188.404 277.666C189.68 278.106 190.758 278.832 191.638 279.844C192.518 280.856 193.178 282.242 193.618 284.002C194.058 285.718 194.278 287.852 194.278 290.404V310.93H185.698ZM201.467 264.73H210.047V280.57H210.311C211.235 279.514 212.423 278.678 213.875 278.062C215.327 277.446 216.933 277.138 218.693 277.138C222.653 277.138 225.667 278.502 227.735 281.23C229.847 283.914 230.903 288.028 230.903 293.572C230.903 299.512 229.429 304.022 226.481 307.102C223.577 310.182 219.573 311.722 214.469 311.722C211.653 311.722 209.079 311.48 206.747 310.996C204.415 310.556 202.655 310.05 201.467 309.478V264.73ZM216.185 284.398C214.601 284.398 213.303 284.816 212.291 285.652C211.323 286.444 210.575 287.61 210.047 289.15V303.538C210.751 303.89 211.499 304.132 212.291 304.264C213.127 304.396 214.007 304.462 214.931 304.462C217.263 304.462 219.023 303.626 220.211 301.954C221.443 300.238 222.059 297.532 222.059 293.836C222.059 287.544 220.101 284.398 216.185 284.398ZM263.252 308.092C261.932 309.148 260.128 310.05 257.84 310.798C255.596 311.502 253.198 311.854 250.646 311.854C245.322 311.854 241.428 310.314 238.964 307.234C236.5 304.11 235.268 299.842 235.268 294.43C235.268 288.622 236.654 284.266 239.426 281.362C242.198 278.458 246.092 277.006 251.108 277.006C252.78 277.006 254.408 277.226 255.992 277.666C257.576 278.106 258.984 278.832 260.216 279.844C261.448 280.856 262.438 282.22 263.186 283.936C263.934 285.652 264.308 287.786 264.308 290.338C264.308 291.262 264.242 292.252 264.11 293.308C264.022 294.364 263.868 295.464 263.648 296.608H243.848C243.98 299.38 244.684 301.47 245.96 302.878C247.28 304.286 249.392 304.99 252.296 304.99C254.1 304.99 255.706 304.726 257.114 304.198C258.566 303.626 259.666 303.054 260.414 302.482L263.252 308.092ZM250.976 283.87C248.732 283.87 247.06 284.552 245.96 285.916C244.904 287.236 244.266 289.018 244.046 291.262H256.322C256.498 288.886 256.124 287.06 255.2 285.784C254.32 284.508 252.912 283.87 250.976 283.87ZM288.583 285.982C287.219 285.498 285.987 285.256 284.887 285.256C283.347 285.256 282.049 285.674 280.993 286.51C279.981 287.302 279.299 288.336 278.947 289.612V310.93H270.367V277.93H277.033L278.023 282.286H278.287C279.035 280.658 280.047 279.404 281.323 278.524C282.599 277.644 284.095 277.204 285.811 277.204C286.955 277.204 288.253 277.446 289.705 277.93L288.583 285.982ZM307.168 301.822C307.168 300.942 306.794 300.238 306.046 299.71C305.298 299.182 304.374 298.698 303.274 298.258C302.174 297.818 300.964 297.378 299.644 296.938C298.324 296.454 297.114 295.816 296.014 295.024C294.914 294.188 293.99 293.154 293.242 291.922C292.494 290.646 292.12 289.018 292.12 287.038C292.12 283.782 293.088 281.296 295.024 279.58C296.96 277.864 299.754 277.006 303.406 277.006C305.914 277.006 308.18 277.27 310.204 277.798C312.228 278.326 313.812 278.92 314.956 279.58L313.042 285.784C312.03 285.388 310.754 284.97 309.214 284.53C307.674 284.09 306.112 283.87 304.528 283.87C301.976 283.87 300.7 284.86 300.7 286.84C300.7 287.632 301.074 288.27 301.822 288.754C302.57 289.238 303.494 289.7 304.594 290.14C305.694 290.536 306.904 290.976 308.224 291.46C309.544 291.944 310.754 292.582 311.854 293.374C312.954 294.122 313.878 295.112 314.626 296.344C315.374 297.576 315.748 299.16 315.748 301.096C315.748 304.44 314.67 307.08 312.514 309.016C310.402 310.908 307.212 311.854 302.944 311.854C300.612 311.854 298.412 311.546 296.344 310.93C294.32 310.358 292.67 309.676 291.394 308.884L293.77 302.482C294.782 303.054 296.124 303.626 297.796 304.198C299.468 304.726 301.184 304.99 302.944 304.99C304.22 304.99 305.232 304.748 305.98 304.264C306.772 303.78 307.168 302.966 307.168 301.822ZM333.362 296.476L334.55 301.624H334.946L335.804 296.41L340.82 277.93H349.664L339.632 307.696C338.796 310.16 337.982 312.404 337.19 314.428C336.442 316.496 335.606 318.278 334.682 319.774C333.758 321.27 332.724 322.414 331.58 323.206C330.48 324.042 329.16 324.46 327.62 324.46C325.332 324.46 323.506 324.086 322.142 323.338L323.726 316.474C324.386 316.738 325.046 316.87 325.706 316.87C326.718 316.87 327.686 316.43 328.61 315.55C329.578 314.714 330.304 313.174 330.788 310.93L316.994 277.93H327.29L333.362 296.476Z" fill="#4D4D4D"/>
<path d="M103.575 333.838H105.075V343.033H110.76V344.338H103.575V333.838ZM115.21 336.313C116.31 336.313 117.15 336.583 117.73 337.123C118.32 337.663 118.615 338.468 118.615 339.538V344.338H117.25V343.288C117.01 343.658 116.665 343.943 116.215 344.143C115.775 344.333 115.25 344.428 114.64 344.428C113.75 344.428 113.035 344.213 112.495 343.783C111.965 343.353 111.7 342.788 111.7 342.088C111.7 341.388 111.955 340.828 112.465 340.408C112.975 339.978 113.785 339.763 114.895 339.763H117.175V339.478C117.175 338.858 116.995 338.383 116.635 338.053C116.275 337.723 115.745 337.558 115.045 337.558C114.575 337.558 114.115 337.638 113.665 337.798C113.215 337.948 112.835 338.153 112.525 338.413L111.925 337.333C112.335 337.003 112.825 336.753 113.395 336.583C113.965 336.403 114.57 336.313 115.21 336.313ZM114.88 343.318C115.43 343.318 115.905 343.198 116.305 342.958C116.705 342.708 116.995 342.358 117.175 341.908V340.798H114.955C113.735 340.798 113.125 341.208 113.125 342.028C113.125 342.428 113.28 342.743 113.59 342.973C113.9 343.203 114.33 343.318 114.88 343.318ZM124.37 340.633L122.72 342.163V344.338H121.28V333.208H122.72V340.348L127.055 336.388H128.795L125.45 339.673L129.125 344.338H127.355L124.37 340.633ZM137.787 336.388V344.338H136.422V343.138C136.132 343.548 135.747 343.868 135.267 344.098C134.797 344.318 134.282 344.428 133.722 344.428C132.662 344.428 131.827 344.138 131.217 343.558C130.607 342.968 130.302 342.103 130.302 340.963V336.388H131.742V340.798C131.742 341.568 131.927 342.153 132.297 342.553C132.667 342.943 133.197 343.138 133.887 343.138C134.647 343.138 135.247 342.908 135.687 342.448C136.127 341.988 136.347 341.338 136.347 340.498V336.388H137.787ZM143.618 340.633L141.968 342.163V344.338H140.528V333.208H141.968V340.348L146.303 336.388H148.043L144.698 339.673L148.373 344.338H146.603L143.618 340.633ZM152.52 336.313C153.62 336.313 154.46 336.583 155.04 337.123C155.63 337.663 155.925 338.468 155.925 339.538V344.338H154.56V343.288C154.32 343.658 153.975 343.943 153.525 344.143C153.085 344.333 152.56 344.428 151.95 344.428C151.06 344.428 150.345 344.213 149.805 343.783C149.275 343.353 149.01 342.788 149.01 342.088C149.01 341.388 149.265 340.828 149.775 340.408C150.285 339.978 151.095 339.763 152.205 339.763H154.485V339.478C154.485 338.858 154.305 338.383 153.945 338.053C153.585 337.723 153.055 337.558 152.355 337.558C151.885 337.558 151.425 337.638 150.975 337.798C150.525 337.948 150.145 338.153 149.835 338.413L149.235 337.333C149.645 337.003 150.135 336.753 150.705 336.583C151.275 336.403 151.88 336.313 152.52 336.313ZM152.19 343.318C152.74 343.318 153.215 343.198 153.615 342.958C154.015 342.708 154.305 342.358 154.485 341.908V340.798H152.265C151.045 340.798 150.435 341.208 150.435 342.028C150.435 342.428 150.59 342.743 150.9 342.973C151.21 343.203 151.64 343.318 152.19 343.318ZM162.835 336.313C163.845 336.313 164.645 336.608 165.235 337.198C165.835 337.778 166.135 338.633 166.135 339.763V344.338H164.695V339.928C164.695 339.158 164.51 338.578 164.14 338.188C163.77 337.798 163.24 337.603 162.55 337.603C161.77 337.603 161.155 337.833 160.705 338.293C160.255 338.743 160.03 339.393 160.03 340.243V344.338H158.59V336.388H159.97V337.588C160.26 337.178 160.65 336.863 161.14 336.643C161.64 336.423 162.205 336.313 162.835 336.313ZM180.103 338.893C180.713 339.063 181.193 339.373 181.543 339.823C181.893 340.263 182.068 340.823 182.068 341.503C182.068 342.413 181.723 343.113 181.033 343.603C180.353 344.093 179.358 344.338 178.048 344.338H173.038V333.838H177.748C178.948 333.838 179.873 334.078 180.523 334.558C181.183 335.038 181.513 335.703 181.513 336.553C181.513 337.103 181.383 337.578 181.123 337.978C180.873 338.378 180.533 338.683 180.103 338.893ZM174.538 335.053V338.413H177.613C178.383 338.413 178.973 338.273 179.383 337.993C179.803 337.703 180.013 337.283 180.013 336.733C180.013 336.183 179.803 335.768 179.383 335.488C178.973 335.198 178.383 335.053 177.613 335.053H174.538ZM177.988 343.123C178.838 343.123 179.478 342.983 179.908 342.703C180.338 342.423 180.553 341.983 180.553 341.383C180.553 340.213 179.698 339.628 177.988 339.628H174.538V343.123H177.988ZM191.365 340.408C191.365 340.518 191.355 340.663 191.335 340.843H184.885C184.975 341.543 185.28 342.108 185.8 342.538C186.33 342.958 186.985 343.168 187.765 343.168C188.715 343.168 189.48 342.848 190.06 342.208L190.855 343.138C190.495 343.558 190.045 343.878 189.505 344.098C188.975 344.318 188.38 344.428 187.72 344.428C186.88 344.428 186.135 344.258 185.485 343.918C184.835 343.568 184.33 343.083 183.97 342.463C183.62 341.843 183.445 341.143 183.445 340.363C183.445 339.593 183.615 338.898 183.955 338.278C184.305 337.658 184.78 337.178 185.38 336.838C185.99 336.488 186.675 336.313 187.435 336.313C188.195 336.313 188.87 336.488 189.46 336.838C190.06 337.178 190.525 337.658 190.855 338.278C191.195 338.898 191.365 339.608 191.365 340.408ZM187.435 337.528C186.745 337.528 186.165 337.738 185.695 338.158C185.235 338.578 184.965 339.128 184.885 339.808H189.985C189.905 339.138 189.63 338.593 189.16 338.173C188.7 337.743 188.125 337.528 187.435 337.528ZM193.365 333.208H194.805V344.338H193.365V333.208ZM200.449 336.313C201.549 336.313 202.389 336.583 202.969 337.123C203.559 337.663 203.854 338.468 203.854 339.538V344.338H202.489V343.288C202.249 343.658 201.904 343.943 201.454 344.143C201.014 344.333 200.489 344.428 199.879 344.428C198.989 344.428 198.274 344.213 197.734 343.783C197.204 343.353 196.939 342.788 196.939 342.088C196.939 341.388 197.194 340.828 197.704 340.408C198.214 339.978 199.024 339.763 200.134 339.763H202.414V339.478C202.414 338.858 202.234 338.383 201.874 338.053C201.514 337.723 200.984 337.558 200.284 337.558C199.814 337.558 199.354 337.638 198.904 337.798C198.454 337.948 198.074 338.153 197.764 338.413L197.164 337.333C197.574 337.003 198.064 336.753 198.634 336.583C199.204 336.403 199.809 336.313 200.449 336.313ZM200.119 343.318C200.669 343.318 201.144 343.198 201.544 342.958C201.944 342.708 202.234 342.358 202.414 341.908V340.798H200.194C198.974 340.798 198.364 341.208 198.364 342.028C198.364 342.428 198.519 342.743 198.829 342.973C199.139 343.203 199.569 343.318 200.119 343.318ZM210.764 336.313C211.774 336.313 212.574 336.608 213.164 337.198C213.764 337.778 214.064 338.633 214.064 339.763V344.338H212.624V339.928C212.624 339.158 212.439 338.578 212.069 338.188C211.699 337.798 211.169 337.603 210.479 337.603C209.699 337.603 209.084 337.833 208.634 338.293C208.184 338.743 207.959 339.393 207.959 340.243V344.338H206.519V336.388H207.899V337.588C208.189 337.178 208.579 336.863 209.069 336.643C209.569 336.423 210.134 336.313 210.764 336.313ZM215.709 347.338C215.359 347.338 215.034 347.298 214.734 347.218C214.434 347.138 214.184 347.018 213.984 346.858L214.449 345.748C214.749 345.998 215.139 346.123 215.619 346.123C215.999 346.123 216.289 346.003 216.489 345.763C216.699 345.533 216.804 345.188 216.804 344.728V336.388H218.244V344.698C218.244 345.518 218.024 346.163 217.584 346.633C217.144 347.103 216.519 347.338 215.709 347.338ZM217.524 334.858C217.244 334.858 217.009 334.768 216.819 334.588C216.639 334.408 216.549 334.188 216.549 333.928C216.549 333.668 216.639 333.448 216.819 333.268C217.009 333.078 217.244 332.983 217.524 332.983C217.804 332.983 218.034 333.073 218.214 333.253C218.404 333.423 218.499 333.638 218.499 333.898C218.499 334.168 218.404 334.398 218.214 334.588C218.034 334.768 217.804 334.858 217.524 334.858ZM223.887 336.313C224.987 336.313 225.827 336.583 226.407 337.123C226.997 337.663 227.292 338.468 227.292 339.538V344.338H225.927V343.288C225.687 343.658 225.342 343.943 224.892 344.143C224.452 344.333 223.927 344.428 223.317 344.428C222.427 344.428 221.712 344.213 221.172 343.783C220.642 343.353 220.377 342.788 220.377 342.088C220.377 341.388 220.632 340.828 221.142 340.408C221.652 339.978 222.462 339.763 223.572 339.763H225.852V339.478C225.852 338.858 225.672 338.383 225.312 338.053C224.952 337.723 224.422 337.558 223.722 337.558C223.252 337.558 222.792 337.638 222.342 337.798C221.892 337.948 221.512 338.153 221.202 338.413L220.602 337.333C221.012 337.003 221.502 336.753 222.072 336.583C222.642 336.403 223.247 336.313 223.887 336.313ZM223.557 343.318C224.107 343.318 224.582 343.198 224.982 342.958C225.382 342.708 225.672 342.358 225.852 341.908V340.798H223.632C222.412 340.798 221.802 341.208 221.802 342.028C221.802 342.428 221.957 342.743 222.267 342.973C222.577 343.203 223.007 343.318 223.557 343.318ZM241.485 333.208V344.338H240.105V343.078C239.785 343.518 239.38 343.853 238.89 344.083C238.4 344.313 237.86 344.428 237.27 344.428C236.5 344.428 235.81 344.258 235.2 343.918C234.59 343.578 234.11 343.103 233.76 342.493C233.42 341.873 233.25 341.163 233.25 340.363C233.25 339.563 233.42 338.858 233.76 338.248C234.11 337.638 234.59 337.163 235.2 336.823C235.81 336.483 236.5 336.313 237.27 336.313C237.84 336.313 238.365 336.423 238.845 336.643C239.325 336.853 239.725 337.168 240.045 337.588V333.208H241.485ZM237.39 343.168C237.89 343.168 238.345 343.053 238.755 342.823C239.165 342.583 239.485 342.253 239.715 341.833C239.945 341.403 240.06 340.913 240.06 340.363C240.06 339.813 239.945 339.328 239.715 338.908C239.485 338.478 239.165 338.148 238.755 337.918C238.345 337.688 237.89 337.573 237.39 337.573C236.88 337.573 236.42 337.688 236.01 337.918C235.61 338.148 235.29 338.478 235.05 338.908C234.82 339.328 234.705 339.813 234.705 340.363C234.705 340.913 234.82 341.403 235.05 341.833C235.29 342.253 235.61 342.583 236.01 342.823C236.42 343.053 236.88 343.168 237.39 343.168ZM244.21 336.388H245.65V344.338H244.21V336.388ZM244.93 334.858C244.65 334.858 244.415 334.768 244.225 334.588C244.045 334.408 243.955 334.188 243.955 333.928C243.955 333.668 244.045 333.448 244.225 333.268C244.415 333.078 244.65 332.983 244.93 332.983C245.21 332.983 245.44 333.073 245.62 333.253C245.81 333.423 245.905 333.638 245.905 333.898C245.905 334.168 245.81 334.398 245.62 334.588C245.44 334.768 245.21 334.858 244.93 334.858ZM254.723 335.143H251.123V333.838H259.808V335.143H256.208V344.338H254.723V335.143ZM263.816 344.428C263.026 344.428 262.316 344.253 261.686 343.903C261.056 343.553 260.561 343.073 260.201 342.463C259.851 341.843 259.676 341.143 259.676 340.363C259.676 339.583 259.851 338.888 260.201 338.278C260.561 337.658 261.056 337.178 261.686 336.838C262.316 336.488 263.026 336.313 263.816 336.313C264.606 336.313 265.311 336.488 265.931 336.838C266.561 337.178 267.051 337.658 267.401 338.278C267.761 338.888 267.941 339.583 267.941 340.363C267.941 341.143 267.761 341.843 267.401 342.463C267.051 343.073 266.561 343.553 265.931 343.903C265.311 344.253 264.606 344.428 263.816 344.428ZM263.816 343.168C264.326 343.168 264.781 343.053 265.181 342.823C265.591 342.583 265.911 342.253 266.141 341.833C266.371 341.403 266.486 340.913 266.486 340.363C266.486 339.813 266.371 339.328 266.141 338.908C265.911 338.478 265.591 338.148 265.181 337.918C264.781 337.688 264.326 337.573 263.816 337.573C263.306 337.573 262.846 337.688 262.436 337.918C262.036 338.148 261.716 338.478 261.476 338.908C261.246 339.328 261.131 339.813 261.131 340.363C261.131 340.913 261.246 341.403 261.476 341.833C261.716 342.253 262.036 342.583 262.436 342.823C262.846 343.053 263.306 343.168 263.816 343.168ZM273.022 340.633L271.372 342.163V344.338H269.932V333.208H271.372V340.348L275.707 336.388H277.447L274.102 339.673L277.777 344.338H276.007L273.022 340.633ZM282.244 344.428C281.454 344.428 280.744 344.253 280.114 343.903C279.484 343.553 278.989 343.073 278.629 342.463C278.279 341.843 278.104 341.143 278.104 340.363C278.104 339.583 278.279 338.888 278.629 338.278C278.989 337.658 279.484 337.178 280.114 336.838C280.744 336.488 281.454 336.313 282.244 336.313C283.034 336.313 283.739 336.488 284.359 336.838C284.989 337.178 285.479 337.658 285.829 338.278C286.189 338.888 286.369 339.583 286.369 340.363C286.369 341.143 286.189 341.843 285.829 342.463C285.479 343.073 284.989 343.553 284.359 343.903C283.739 344.253 283.034 344.428 282.244 344.428ZM282.244 343.168C282.754 343.168 283.209 343.053 283.609 342.823C284.019 342.583 284.339 342.253 284.569 341.833C284.799 341.403 284.914 340.913 284.914 340.363C284.914 339.813 284.799 339.328 284.569 338.908C284.339 338.478 284.019 338.148 283.609 337.918C283.209 337.688 282.754 337.573 282.244 337.573C281.734 337.573 281.274 337.688 280.864 337.918C280.464 338.148 280.144 338.478 279.904 338.908C279.674 339.328 279.559 339.813 279.559 340.363C279.559 340.913 279.674 341.403 279.904 341.833C280.144 342.253 280.464 342.583 280.864 342.823C281.274 343.053 281.734 343.168 282.244 343.168ZM296.018 339.673L294.098 341.623V344.338H292.598V333.838H294.098V339.703L299.798 333.838H301.508L297.023 338.563L301.793 344.338H300.038L296.018 339.673ZM305.874 336.313C306.974 336.313 307.814 336.583 308.394 337.123C308.984 337.663 309.279 338.468 309.279 339.538V344.338H307.914V343.288C307.674 343.658 307.329 343.943 306.879 344.143C306.439 344.333 305.914 344.428 305.304 344.428C304.414 344.428 303.699 344.213 303.159 343.783C302.629 343.353 302.364 342.788 302.364 342.088C302.364 341.388 302.619 340.828 303.129 340.408C303.639 339.978 304.449 339.763 305.559 339.763H307.839V339.478C307.839 338.858 307.659 338.383 307.299 338.053C306.939 337.723 306.409 337.558 305.709 337.558C305.239 337.558 304.779 337.638 304.329 337.798C303.879 337.948 303.499 338.153 303.189 338.413L302.589 337.333C302.999 337.003 303.489 336.753 304.059 336.583C304.629 336.403 305.234 336.313 305.874 336.313ZM305.544 343.318C306.094 343.318 306.569 343.198 306.969 342.958C307.369 342.708 307.659 342.358 307.839 341.908V340.798H305.619C304.399 340.798 303.789 341.208 303.789 342.028C303.789 342.428 303.944 342.743 304.254 342.973C304.564 343.203 304.994 343.318 305.544 343.318ZM321.889 336.313C322.889 336.313 323.679 336.603 324.259 337.183C324.849 337.763 325.144 338.623 325.144 339.763V344.338H323.704V339.928C323.704 339.158 323.524 338.578 323.164 338.188C322.814 337.798 322.309 337.603 321.649 337.603C320.919 337.603 320.339 337.833 319.909 338.293C319.479 338.743 319.264 339.393 319.264 340.243V344.338H317.824V339.928C317.824 339.158 317.644 338.578 317.284 338.188C316.934 337.798 316.429 337.603 315.769 337.603C315.039 337.603 314.459 337.833 314.029 338.293C313.599 338.743 313.384 339.393 313.384 340.243V344.338H311.944V336.388H313.324V337.573C313.614 337.163 313.994 336.853 314.464 336.643C314.934 336.423 315.469 336.313 316.069 336.313C316.689 336.313 317.239 336.438 317.719 336.688C318.199 336.938 318.569 337.303 318.829 337.783C319.129 337.323 319.544 336.963 320.074 336.703C320.614 336.443 321.219 336.313 321.889 336.313ZM327.794 336.388H329.234V344.338H327.794V336.388ZM328.514 334.858C328.234 334.858 327.999 334.768 327.809 334.588C327.629 334.408 327.539 334.188 327.539 333.928C327.539 333.668 327.629 333.448 327.809 333.268C327.999 333.078 328.234 332.983 328.514 332.983C328.794 332.983 329.024 333.073 329.204 333.253C329.394 333.423 329.489 333.638 329.489 333.898C329.489 334.168 329.394 334.398 329.204 334.588C329.024 334.768 328.794 334.858 328.514 334.858Z" fill="#4C475A"/>
<defs>
<linearGradient id="paint0_linear" x1="150.104" y1="152.436" x2="173.34" y2="152.436" gradientUnits="userSpaceOnUse">
<stop stop-color="#808080" stop-opacity="0.25"/>
<stop offset="0.54" stop-color="#808080" stop-opacity="0.12"/>
<stop offset="1" stop-color="#808080" stop-opacity="0.1"/>
</linearGradient>
<linearGradient id="paint1_linear" x1="176.466" y1="153.032" x2="183.916" y2="153.032" gradientUnits="userSpaceOnUse">
<stop stop-color="#808080" stop-opacity="0.25"/>
<stop offset="0.54" stop-color="#808080" stop-opacity="0.12"/>
<stop offset="1" stop-color="#808080" stop-opacity="0.1"/>
</linearGradient>
<linearGradient id="paint2_linear" x1="201.96" y1="155.114" x2="208.506" y2="155.114" gradientUnits="userSpaceOnUse">
<stop stop-color="#808080" stop-opacity="0.25"/>
<stop offset="0.54" stop-color="#808080" stop-opacity="0.12"/>
<stop offset="1" stop-color="#808080" stop-opacity="0.1"/>
</linearGradient>
<linearGradient id="paint3_linear" x1="231.893" y1="115.905" x2="231.893" y2="34.3906" gradientUnits="userSpaceOnUse">
<stop stop-color="#808080" stop-opacity="0.25"/>
<stop offset="0.54" stop-color="#808080" stop-opacity="0.12"/>
<stop offset="1" stop-color="#808080" stop-opacity="0.1"/>
</linearGradient>
<linearGradient id="paint4_linear" x1="194.065" y1="131.71" x2="194.065" y2="117.072" gradientUnits="userSpaceOnUse">
<stop stop-color="#808080" stop-opacity="0.25"/>
<stop offset="0.54" stop-color="#808080" stop-opacity="0.12"/>
<stop offset="1" stop-color="#808080" stop-opacity="0.1"/>
</linearGradient>
<linearGradient id="paint5_linear" x1="210.841" y1="176.494" x2="210.841" y2="129.38" gradientUnits="userSpaceOnUse">
<stop stop-color="#808080" stop-opacity="0.25"/>
<stop offset="0.54" stop-color="#808080" stop-opacity="0.12"/>
<stop offset="1" stop-color="#808080" stop-opacity="0.1"/>
</linearGradient>
</defs>
</svg>
